<?xml version="1.0" encoding="UTF-8"?>
<svg id="_Слой_1" data-name="Слой_1" xmlns="http://www.w3.org/2000/svg" version="1.1" viewBox="0 0 2000 965.8">
  <!-- Generator: Adobe Illustrator 29.3.1, SVG Export Plug-In . SVG Version: 2.1.0 Build 151)  -->
  <defs>
    <style>
      .st0 {
        fill: #fff;
        fill-rule: evenodd;
        opacity: .8;
      }
    </style>
  </defs>
  <path class="st0" d="M1254.5,254.7c41.9-38.3,82.9-52.8,123-43.5,40.7,10.1,71.7,28.4,93,55.1,17.4,21.4-4.5,61.1-47.1,106,1.7,2.1,3.3,4.2,4.9,6.4l.6.8c54.7,80.6,90,150.6,105.8,214.4,16.1,64.9,11.9,123-12.6,178.4-.3.9-.8,1.7-1.3,2.6-33.4,56.2-102.3,90.9-201.6,110.4-94.1,18.5-216.7,23.5-363.1,20.8-111.2-1.8-205.8-9.4-281-26.1-78.4-17.4-136.6-44.8-171.9-85.8l-.9-1c-32.7-39.3-47.5-81.6-46.5-131.7,1-48.2,16.7-103,45.3-169.2h0s0-.2,0-.2c27.8-62.4,62.7-114.5,104.6-156.2-14.8-5.6-29.8-13.2-44.9-22.7-45.5-35-36.7-82.1,29.5-138.7,32.1-24.5,72.6-28.9,121.6-13.4,32,11.4,44.6,38.3,50.5,76.9,56.1-19.6,118.7-28.8,188-27.7,13.2-18.8,31.3-32,55.5-37v-43.6c-38.1,6.9-98.6,15.3-66.5-44.5,15-22.9,53.8,1,71.1,14.7,3.4-15.8,26-13.6,33.5-6.1h0s0,0,0,0c1.1,1.1,5.5,6.7,6.4,8,9.4-.9,74.3-41.3,82.6,3.1,11.4,66.7-53.9,37.5-82.4,26.7v41.2c29,5.4,48.7,22.9,61.7,47.4,48.9,6.8,93.2,17.3,132.9,31.4,3.1,1.1,6.2,2.2,9.2,3.4M1304.2,754.4c2-.1,2.8-1.2,2.3-3.2-1-4.4-2-8.9-3.1-13.4-1.1-4.5-2.1-9-3.1-13.4-.1-.4-.3-.8-.6-1.2-.3-.4-.6-.7-1.1-.7s-.8.2-.8.6c0,.4-.2.7-.3.9-1.4,4-2.8,8.1-4.1,12.1-1.4,4.1-2.8,8.1-4.1,12.1-.6,1.9-1.1,3.3-1.3,4.2-.3.9-.2,1.6,0,2,.3.4.9.6,1.9.6h4.1s.4,0,1.2,0,1.8-.1,2.8-.2c1.1,0,2.2-.1,3.4-.2,1.2,0,2.2-.2,2.9-.3ZM1318.4,680c2.3-.1,3.7,0,4.4.6.7.5,1.3,1.8,1.8,4,1,4.1,1.9,8.2,2.7,12.1.8,3.9,1.7,7.9,2.7,12.1,2.1,9,4.3,18,6.4,26.8,2.1,8.8,4.3,17.6,6.4,26.6,1,4,2,8.1,2.9,12.1.9,4.1,1.9,8.1,2.9,12.1.4,1.6.8,3.2,1.1,4.8.4,1.6.8,3.1,1.1,4.6.8,2.9-.2,4.6-3,5.1h-1.3c-4.5.3-9,.3-13.6,0-4.5-.2-9-.2-13.4,0-1.9,0-3-.3-3.5-1-.4-.6-.8-2-1-4.1-.4-5.5-1.4-11-3-16.6-.2-1.3-.8-1.9-1.6-2.1-.8-.1-1.5-.2-2.2-.2-4.5-.1-9-.1-13.6,0-4.5.1-9,.2-13.4.4-1,0-1.8.2-2.3.8-.5.5-.9,1.2-1.1,2.1-.7,2.9-1.5,5.6-2.4,8.1-.8,2.5-1.6,5.2-2.4,8.1-.4,1.4-.8,2.4-1.4,2.9-.6.6-1.7.8-3.5.8h-15.3c-3.3,0-6.2,0-9,0-2.7,0-4.1-.1-4.2-.1-3-.2-4-1.8-3-4.7,1.3-3.9,2.5-7.7,3.8-11.3,1.3-3.6,2.6-7.3,4-11.1,2.6-8.4,5.3-16.8,7.9-25.1,2.6-8.3,5.3-16.7,8.1-25.1.9-2.9,1.9-6.4,3.2-10.5,1.3-4.1,2.5-8.2,3.7-12.1,1.2-3.9,2.2-7.2,3.1-10,.9-2.8,1.4-4.3,1.5-4.5.4-1.3.7-2.3.9-3,.2-.8.5-1.3.9-1.7.4-.4,1.1-.6,2.1-.8.9-.1,2.3-.2,4.1-.2s4.1,0,7.6,0c3.6,0,7.3,0,11.3,0h11.4c3.6,0,6.3,0,7.9,0ZM1140.7,740.9c0,4.1,0,8.3,0,12.4,0,4.1-.2,8.3-.3,12.4,0,2.5,1.3,3.8,3.8,4,5.4.5,10.5.1,15.4-1.1,4.9-1.3,9.5-3.5,13.9-6.8,2.1-1.6,4-3.4,5.6-5.3,1.6-1.9,2.8-4.1,3.4-6.8.9-3.5,1.2-7,.9-10.5-.3-3.5-1-7-2.2-10.5-1-2.6-2.4-5-4.1-7.1-1.8-2.1-4-3.7-6.8-4.8-4-1.8-8.1-2.8-12.1-3-4.1-.2-8.2-.4-12.3-.4s-4,.3-4.4.8c-.4.5-.7,2-.7,4.5-.1,1.9-.2,4.1,0,6.6,0,2.5,0,5,0,7.3v8.3h0ZM1103.4,691.7c0-2.6,0-4.7.2-6.1.1-1.4.5-2.5,1.2-3.2.7-.7,1.7-1.1,3.1-1.3,1.4-.2,3.4-.3,6-.5,1.4,0,4.1,0,8.3-.1,4.1,0,8.7,0,13.6,0s9.7,0,14.3.2c4.6.1,8.2.3,10.7.6,3,.3,6,.5,9,.9,3,.3,6,1,8.9,2,2.6.9,5.2,2,7.8,3.4,2.6,1.4,5,3,7.3,4.7,3.8,2.5,7.1,5.9,9.9,10.1,2.8,4.2,5.2,8.5,7.2,12.9,1.9,4.4,3.5,8.5,4.6,12.4,1.1,3.9,1.9,6.8,2.3,8.9,1.6,9,1.1,17.3-1.7,24.7-2.8,7.4-7.2,14.3-13.4,20.7-4.3,4.4-8.9,8-13.9,10.7-5,2.8-10.6,4.6-16.8,5.5-7.9,1.1-15.7,1.9-23.5,2.4s-15.5.5-23.5.3c-3.3,0-6.4-.1-9.5-.4-3.1-.2-6.2-.4-9.3-.4-1.4.1-2.2-.1-2.5-.8-.3-.6-.5-1.4-.5-2.5s0-1,0-1.4c0-.4,0-.9,0-1.4,0-8.9,0-17.8,0-26.7,0-8.9,0-17.7,0-26.7,0,0,0-1.8.1-5.3,0-3.5,0-7.8,0-12.9v-16c0-5.6,0-10.4,0-14.6ZM962.2,687v-4.1c.2-2.1,1.3-3,3.2-2.6,4.8-.1,9.2-.1,13.4,0,4.2.1,8.5,0,12.8-.2,1.6-.1,2.9,0,3.6.7.8.6,1.7,1.4,2.5,2.5,3.4,4.9,6.8,10.1,10.2,15.6,3.4,5.5,6.9,11,10.5,16.5,3.6,5.5,7.2,10.9,11,16.2,3.7,5.3,7.5,10.3,11.4,14.8.9,1,2,2.2,3.2,3.5,1.3,1.3,2.1,2,2.6,2s.8-.9.9-2.8c.1-1.9.2-3.5.2-4.9-.1-4.1-.2-8.7-.3-13.6,0-4.9-.2-9.8-.3-14.8-.1-5-.2-9.9-.3-14.8,0-4.9-.2-9.4-.3-13.6-.1-2.8,0-4.5.7-5.3.6-.8,2.2-1.2,4.8-1.3,3.6-.2,7.2-.4,10.7-.6,3.5-.1,7.1-.1,10.7,0,3.3,0,5.3.4,6,1.2.8.8,1.1,2.8,1.1,5.9s0,5.6,0,9-.1,6.8-.2,10.4c0,3.5-.1,7-.2,10.4,0,3.4,0,6.4,0,9,.2,6.9.5,13.8.7,20.7.2,6.9.4,13.9.7,20.9.3,4.8.4,9.5.4,14.2s0,9.4.2,14.2c0,1.6-.2,2.7-.6,3.1-.4.4-1.4.6-3,.6h-15.9c-5.3,0-10.7-.1-16.1-.4-.8,0-1.6-.2-2.5-.7-.9-.4-1.6-1-2.3-1.6-3.6-3.4-6.8-6.8-9.4-10.2-1.4-1.6-3.1-3.8-5.1-6.6-2-2.8-4.1-5.8-6.3-9.1-2.2-3.3-4.5-6.8-6.8-10.4-2.3-3.6-4.5-6.9-6.5-9.9-2-3-3.7-5.6-5.2-7.8-1.4-2.2-2.4-3.7-2.9-4.4-.1-.2-.4-.4-.8-.4s-.7,0-.9-.2c-.1.1-.2.2-.2.4-.1.1-.2.4-.2.9v8.8c0,3.6,0,6.5.2,8.8.1,6,.3,12.1.4,18.1.1,6,.3,12,.6,18.1,0,2.9-.4,4.8-1.3,5.7-.9.9-2.7,1.3-5.6,1.1-2-.1-4-.2-5.9-.4-1.9-.1-3.9-.2-5.9-.2-2,.1-4.3.1-7,0-2.7-.1-5.1,0-7.2.4-1.6.4-2.6-.2-3-1.9-.2-1-.3-1.8-.2-2.4.1-.6.2-1.4.2-2.5-.4-8.5-.5-17-.4-25.4.1-8.4,0-16.8-.2-25.2-.1-4.5-.1-9,0-13.6.1-4.5.2-9,.2-13.6,0,0,0-1.1,0-3.3,0-2.2,0-4.8,0-7.8s0-6.1,0-9.3c0-3.2,0-5.9,0-8ZM896,754.4c2-.1,2.8-1.2,2.3-3.2-1-4.4-2-8.9-3.1-13.4-1.1-4.5-2.1-9-3.1-13.4-.1-.4-.3-.8-.6-1.2s-.6-.7-1.1-.7-.8.2-.9.6c0,.4-.2.7-.3.9-1.4,4-2.8,8.1-4.1,12.1-1.4,4.1-2.8,8.1-4.1,12.1-.6,1.9-1.1,3.3-1.3,4.2-.2.9-.2,1.6,0,2s.9.6,1.9.6h4s.4,0,1.2,0,1.8-.1,2.8-.2c1.1,0,2.2-.1,3.4-.2,1.2,0,2.2-.2,2.9-.3ZM910.2,680c2.3-.1,3.7,0,4.4.6.7.5,1.3,1.8,1.8,4,1,4.1,1.9,8.2,2.7,12.1.8,3.9,1.7,7.9,2.7,12.1,2.1,9,4.3,18,6.4,26.8,2.1,8.8,4.3,17.6,6.4,26.6,1,4,2,8.1,2.9,12.1.9,4.1,1.9,8.1,2.9,12.1.4,1.6.8,3.2,1.1,4.8.4,1.6.8,3.1,1.1,4.6.8,2.9-.3,4.6-3,5.1h-1.3c-4.5.3-9,.3-13.6,0-4.5-.2-9-.2-13.4,0-1.9,0-3-.3-3.5-1-.4-.6-.8-2-1-4.1-.4-5.5-1.4-11-3-16.6-.2-1.3-.8-1.9-1.6-2.1-.8-.1-1.5-.2-2.2-.2-4.5-.1-9-.1-13.6,0-4.5.1-9,.2-13.4.4-1,0-1.8.2-2.3.8-.5.5-.9,1.2-1.1,2.1-.8,2.9-1.5,5.6-2.4,8.1-.8,2.5-1.6,5.2-2.4,8.1-.4,1.4-.9,2.4-1.4,2.9-.6.6-1.7.8-3.5.8h-15.3c-3.3,0-6.3,0-9,0-2.7,0-4.1-.1-4.2-.1-3-.2-4-1.8-3-4.7,1.3-3.9,2.5-7.7,3.8-11.3,1.3-3.6,2.6-7.3,4-11.1,2.6-8.4,5.3-16.8,7.9-25.1,2.6-8.3,5.3-16.7,8.1-25.1.9-2.9,1.9-6.4,3.2-10.5,1.3-4.1,2.5-8.2,3.7-12.1,1.2-3.9,2.2-7.2,3.1-10,.9-2.8,1.4-4.3,1.5-4.5.4-1.3.7-2.3.8-3,.2-.8.5-1.3.9-1.7.4-.4,1.1-.6,2.1-.8.9-.1,2.3-.2,4-.2s4,0,7.6,0c3.6,0,7.3,0,11.3,0h11.4c3.6,0,6.3,0,7.9,0ZM750.6,702.3c-2.5.3-4.1.6-4.5,1.1-.5.5-.7,2-.6,4.5,0,3.4,0,7.4,0,12.1,0,4.6.2,8.7.3,12.1.1,1.8.4,2.9.9,3.6.5.6,1.6.9,3.2.8,1.3-.1,3.4-.2,6.5-.4s6.3-.7,9.5-1.7c3.2-1,6-2.6,8.4-4.7,2.4-2.1,3.6-5.3,3.6-9.4s-.7-6-2-8.2c-1.4-2.2-3-4-4.9-5.4-2-1.4-4.1-2.4-6.4-3-2.4-.6-4.5-1-6.6-1.2-2-.2-3.7-.3-5.1-.2-1.4,0-2.2,0-2.4,0ZM710.5,700.9c.1-2.1.1-4.3,0-6.5-.1-2.2-.2-4.4-.2-6.7.1-2.6.6-4.5,1.5-5.5.9-1,2.6-1.6,5.3-1.9,2.1-.2,4.2-.4,6.2-.4h6c6.8.1,13.6.2,20.3.2s13.6.1,20.4.4c7,.4,13.6,1.7,19.8,4,1.8.6,4,2,6.7,4.1,2.7,2.1,5.3,4.7,7.7,7.9,2.5,3.2,4.6,6.8,6.3,10.9,1.8,4.1,2.6,8.4,2.6,12.9,0,7-1.2,13-3.6,17.9-2.4,4.9-5.5,9.1-9.3,12.5-3.8,3.5-8,6.3-12.6,8.5-4.6,2.2-9.1,4-13.5,5.4-7.4,2.3-15.1,3-23.1,2.3-2.6-.2-4.2,0-4.7.8-.5.8-.8,2.6-.8,5.5-.1,3.8-.2,7.3,0,10.5,0,3.2.2,6.6.5,10.3.1,2.6-.2,4.5-1.1,5.7-.9,1.1-2.6,1.6-5.2,1.5-3.9,0-7.9,0-12.2.3-4.2.2-8.3.2-12.2,0-1.7-.1-2.9-.5-3.5-1.2-.6-.7-1-2-1.2-3.9-.2-3.4-.3-6.8-.2-10.2.1-3.4.1-6.8,0-10.2-.2-6.4-.4-12.7-.5-18.9,0-6.2-.2-12.5-.5-18.9,0,0,0-1.3,0-4,0-2.7.1-6,.2-9.8,0-3.8.2-7.9.3-12.1.1-4.3.3-7.9.4-10.9ZM1255.5,480.5c-.6,4.7,1,7.1,5,7.4,4.2.3,8.4.7,12.6,1.2,4.2.5,8.4.7,12.6.8,3.8-.2,7.4-1,10.8-2.4s5.8-4.2,7.2-8.6c3.2-8.8,1.6-16.1-4.8-22-7.5-7.3-16.5-11.5-27.1-12.7-4.9-.7-7.9-.6-9,.2-1.1.8-2.1,3.7-3,8.6-.1.7-.3,2.3-.7,4.8-.3,2.4-.8,5.1-1.3,8.1-.5,2.9-1,5.7-1.3,8.4-.4,2.7-.7,4.8-.9,6.2ZM1241.4,584.9c-.6,4.4,1.2,6.8,5.4,7.1,3,.2,5.9.5,8.8,1,2.9.5,5.8.7,8.5.6,5-.3,10-.9,14.9-1.9,4.9-1,9.5-3,13.9-6.1,6.4-4.9,9.6-10.5,9.6-16.8,0-6.4-3.3-11.8-9.9-16.2-6-3.6-12.4-6.3-19.3-8.1-6.9-1.8-13.9-3.1-21-3.8-3.9-.5-6.2,1.5-6.8,6.2-.2,1.5-.5,4-.9,7.6-.4,3.6-.8,7.3-1.2,11.3-.4,3.9-.8,7.7-1.2,11.3-.4,3.6-.7,6.2-.9,7.9ZM1203.3,405.5c.5-3.4,1.4-5.9,2.9-7.5,1.5-1.5,4-2.4,7.5-2.7,2,0,4,.2,5.9.4,2,.3,3.9.5,5.9.8,9,1.7,18.2,3,27.6,3.8,12.5,1.5,24.9,3.4,37.2,5.7,12.3,2.3,24.6,5.1,36.9,8.3,7.5,2,13.8,5.2,19.1,9.4,5.3,4.2,9.9,9.5,13.7,15.8,1.2,1.9,2.2,4.5,2.9,7.7.7,3.2,1.3,6.5,1.8,9.8.5,3.3,1,6.3,1.2,8.8.3,2.5.4,3.9.4,4.2-.2,8.7-2.5,16.4-6.8,23.2-4.3,6.8-9.7,12.8-16.2,18.2-2.5,2.1-3.7,3.5-3.6,4.2.2.6,1.7,1.9,4.7,3.8,3.2,2.2,6.3,4.3,9.4,6.4,3.1,2.1,6,4.4,8.6,7,10.1,10.4,14.3,23,12.8,37.7-2.8,21.8-12.1,40.9-28.1,57.1-2.3,2.4-5.2,4.5-8.5,6.1-3.4,1.7-6.6,3.3-9.8,4.8-4.8,2.3-9.8,3.9-15.1,4.7-5.2.8-10.6,1-16,.8-4.2-.3-9.6-.9-16.2-1.7-6.6-.8-13.8-1.7-21.5-2.8-7.7-1.1-15.6-2.2-23.7-3.3-8.1-1.1-15.6-2.2-22.6-3.3-7-1.1-13-2-18.1-2.9-5.1-.8-8.7-1.4-10.6-1.7-4.9-.9-8-2.4-9.3-4.5-1.3-2.1-1.7-5.5-1-10.4l14.4-104s.6-3.8,1.8-11.4c1.2-7.6,2.5-16.8,4-27.5,1.5-10.8,3-22.1,4.5-34,1.5-11.9,2.9-22.3,4.1-31.1ZM1075.7,491.9c0-3,0-5.3-.2-6.9-.1-1.6-.3-2.9-.5-3.9-.2-1-.5-1.9-.7-2.8-.2-.9-.5-2-.7-3.5-.7-3.7-2.8-7.7-6.1-12.1-3.3-4.3-7.4-8.4-12.2-12.2-4.8-3.8-10.1-7-16-9.6-5.8-2.6-11.4-3.9-16.9-3.9-11.1,0-20.5,2.2-28,6.7-7.5,4.4-13.6,10-18.2,16.5-4.6,6.6-8,13.7-10.2,21.3-2.2,7.7-3.5,14.7-3.7,21.1-.2,4.2.8,9.1,3.2,14.6,2.4,5.6,5.9,10.9,10.8,16,4.8,5.1,10.8,9.4,17.8,13,7,3.6,15,5.4,23.9,5.4s18.4-2,25.6-6.1c7.2-4.1,13.2-9.1,18-15,4.8-5.9,8.4-12.4,10.8-19.3,2.4-6.9,3.5-13.4,3.5-19.3ZM1137.2,493.4c-1.2,11.4-3.1,22.4-5.6,33-2.5,10.6-6.1,20.7-10.9,30.2-4.8,9.5-10.9,18.3-18.2,26.3-7.3,8-16.1,15-26.5,21-8.2,4.7-16.6,8.3-25.2,10.8-8.7,2.5-17.7,3.7-27.1,3.7-15.3,0-29-1.9-41-5.7-12-3.8-22.5-8.8-31.5-14.8-9-6.1-16.7-12.9-23-20.4-6.3-7.5-11.5-15-15.6-22.3-4.1-7.3-7.1-14-9.1-20.2-2-6.2-3.1-11.1-3.3-14.8-.5-6.7-1.1-13.4-1.7-20-.6-6.7-.3-13.5.9-20.4,2.5-12.1,6.6-24,12.4-35.6,5.8-11.6,13.2-22.1,22.3-31.5,9-9.4,19.7-17.4,32.1-23.9,12.4-6.6,26.2-10.7,41.5-12.4,9.1-1.2,18.2-1.1,27.3.4,9,1.5,17.9,3.8,26.5,7,14.8,5.7,27.3,13.7,37.5,23.9s18.4,22.7,24.9,37.3c3.5,7.9,6.7,15.7,9.6,23.4,3,7.7,4.2,16.1,3.7,25.2ZM726.4,482.3c1,4.6,3.5,6.3,7.3,5.2,4-1.2,8.1-2.3,12.2-3.3,4.1-1,8.1-2.3,12.1-3.7,3.5-1.5,6.6-3.6,9.3-6.1,2.7-2.5,4-6,3.7-10.5,0-9.4-4.2-15.7-12.2-18.9-9.6-4.2-19.5-5-29.8-2.4-4.8,1.1-7.6,2.2-8.4,3.4s-.7,4.2.1,9.1c.2.7.5,2.3,1.1,4.7.5,2.4,1.1,5.1,1.6,8,.5,2.9,1.1,5.7,1.7,8.4.6,2.6,1.1,4.7,1.4,6.1ZM749.9,585c1,4.3,3.5,5.9,7.5,4.8,2.8-.9,5.7-1.6,8.6-2.1,2.9-.5,5.7-1.3,8.2-2.4,4.6-2.1,9-4.4,13.3-7,4.2-2.6,7.9-6.1,10.9-10.6,4.3-6.8,5.3-13.2,3.1-19.1-2.2-6-7.2-9.9-15-11.7-6.9-1.2-13.8-1.5-20.9-.8-7.1.7-14.1,2-21,3.8-3.9.9-5.3,3.6-4.2,8.2.3,1.4.9,3.9,1.8,7.4.9,3.5,1.9,7.1,2.8,11,1,3.8,1.9,7.5,2.8,11,.9,3.5,1.5,6,1.9,7.7ZM651.3,430.4c-.8-3.4-.7-6.1.1-8,.8-2,2.8-3.7,6.1-5.2,1.9-.7,3.8-1.2,5.7-1.7,1.9-.4,3.9-.9,5.8-1.3,9-1.5,18.1-3.6,27.1-6.1,12.2-3,24.5-5.6,36.8-7.7,12.3-2.1,24.8-3.9,37.4-5.2,7.7-.7,14.8,0,21.2,2.1,6.4,2.1,12.6,5.4,18.4,9.9,1.8,1.4,3.6,3.4,5.4,6.2,1.8,2.8,3.5,5.6,5.1,8.5,1.7,2.9,3.1,5.5,4.2,7.8,1.1,2.3,1.7,3.5,1.8,3.8,2.9,8.2,3.5,16.3,1.8,24.1-1.7,7.9-4.6,15.4-8.8,22.7-1.6,2.9-2.3,4.6-1.9,5.2.4.5,2.3,1.2,5.8,1.9,3.8.9,7.4,1.8,11,2.7,3.6.8,7.1,2,10.5,3.5,13,6.2,21.4,16.5,25.2,30.8,5.1,21.4,3,42.5-6.3,63.4-1.3,3.1-3.3,6-5.8,8.7-2.6,2.7-5.1,5.4-7.5,8-3.7,3.9-7.8,7.1-12.5,9.6-4.6,2.6-9.5,4.7-14.7,6.4-4,1.2-9.3,2.5-15.8,4.1-6.5,1.6-13.5,3.2-21.1,4.9-7.6,1.7-15.4,3.5-23.3,5.2-8,1.8-15.4,3.4-22.3,4.8-6.9,1.4-12.9,2.6-18,3.7-5.1,1-8.6,1.7-10.5,2.2-4.9.8-8.3.5-10.3-.9-2-1.5-3.5-4.6-4.6-9.4l-23-102.4s-.8-3.8-2.3-11.3-3.5-16.6-5.9-27.2c-2.4-10.6-5-21.8-7.7-33.4-2.7-11.7-5.1-21.9-7.1-30.5ZM1406.5,388.9c-79.7-105.9-228.4-158.7-446.2-158.3-207.4-6.3-352.4,83.1-435.1,268.3-55.6,128.7-61.2,211.7-1.7,283.1,63,74.3,214.5,100.2,432.9,103.7,288.3,5.4,481.7-19.4,541.4-119.8,46.6-104.4,15.8-219.2-91.3-377.1Z"/>
</svg>