<?xml version="1.0" encoding="UTF-8"?>
<svg id="Layer_1" xmlns="http://www.w3.org/2000/svg" version="1.1" xmlns:xlink="http://www.w3.org/1999/xlink" viewBox="0 0 1814 830">
  <!-- Generator: Adobe Illustrator 29.3.1, SVG Export Plug-In . SVG Version: 2.1.0 Build 151)  -->
  <defs>
    <style>
      .st0 {
        fill: #fff;
      }

      .st1 {
        fill: url(#_Безымянный_градиент_2);
      }

      .st2 {
        fill: url(#_Безымянный_градиент);
      }
    </style>
    <linearGradient id="_Безымянный_градиент" data-name="Безымянный градиент" x1="528.8" y1="561.5" x2="179.5" y2="257.6" gradientTransform="translate(0 832) scale(1 -1)" gradientUnits="userSpaceOnUse">
      <stop offset="0" stop-color="#d83fff"/>
      <stop offset="1" stop-color="#3fccff"/>
    </linearGradient>
    <linearGradient id="_Безымянный_градиент_2" data-name="Безымянный градиент 2" x1="519.5" y1="576.1" x2="162.1" y2="265.1" gradientTransform="translate(0 832) scale(1 -1)" gradientUnits="userSpaceOnUse">
      <stop offset="0" stop-color="#d83fff"/>
      <stop offset="1" stop-color="#3fccff"/>
    </linearGradient>
  </defs>
  <g>
    <path class="st2" d="M349,230c-100.6,0-182.1,81.5-182.1,182.1s81.5,227.9,182.1,227.9,182.1-127.4,182.1-227.9-81.5-182.1-182.1-182.1ZM447.8,510.8c-26.4,26.4-61.5,40.9-98.8,40.9s-72.4-14.5-98.8-40.9c-26.4-26.4-40.9-61.5-40.9-98.8s14.5-72.4,40.9-98.8,61.5-40.9,98.8-40.9,72.4,14.5,98.8,40.9,40.9,61.5,40.9,98.8-14.6,72.5-40.9,98.8Z"/>
    <circle class="st1" cx="380.9" cy="376.5" r="57.5"/>
  </g>
  <g>
    <path class="st0" d="M637.1,465.3c-8.6-2.2-15.4-5-20.5-8.3l10.5-22.5c4.8,3.1,10.7,5.6,17.5,7.5s13.5,2.9,20.1,2.9c13.3,0,19.9-3.3,19.9-9.9s-1.8-5.3-5.4-6.6c-3.6-1.3-9.2-2.5-16.7-3.4-8.8-1.3-16.2-2.9-21.9-4.6-5.8-1.7-10.8-4.8-15-9.2s-6.3-10.7-6.3-18.9,2-12.9,5.9-18.2c4-5.3,9.7-9.4,17.3-12.4,7.6-2.9,16.5-4.4,26.8-4.4s15.2.8,22.8,2.5,13.8,4,18.8,6.9l-10.5,22.3c-9.5-5.4-19.9-8-31.2-8s-11.7.9-15.1,2.8c-3.4,1.9-5,4.3-5,7.2s1.8,5.7,5.4,7c3.6,1.3,9.4,2.6,17.3,3.8,8.8,1.5,16.1,3.1,21.7,4.7,5.6,1.7,10.5,4.7,14.7,9.1s6.2,10.6,6.2,18.5-2,12.7-6,17.9-9.9,9.3-17.6,12.2c-7.7,2.9-16.9,4.3-27.4,4.3-9,.1-17.7-1-26.3-3.2Z"/>
    <path class="st0" d="M754.6,461.5c-9-4.8-16.1-11.4-21.2-19.8-5.1-8.4-7.6-18-7.6-28.8s2.5-20.3,7.6-28.8c5.1-8.4,12.2-15,21.2-19.8s19.3-7.1,30.7-7.1,21.6,2.4,30.6,7.1c9,4.8,16,11.4,21.1,19.8s7.6,18,7.6,28.8-2.5,20.3-7.6,28.8c-5.1,8.4-12.1,15-21.1,19.8s-19.2,7.1-30.6,7.1-21.6-2.4-30.7-7.1ZM805.1,434.7c5.2-5.4,7.7-12.7,7.7-21.8s-2.6-16.4-7.7-21.8c-5.2-5.4-11.8-8.1-19.8-8.1s-14.7,2.7-19.9,8.1-7.8,12.7-7.8,21.8,2.6,16.4,7.8,21.8,11.9,8.1,19.9,8.1c8,0,14.6-2.7,19.8-8.1Z"/>
    <path class="st0" d="M886.7,461.5c-9.2-4.8-16.4-11.4-21.5-19.8-5.2-8.4-7.7-18-7.7-28.8s2.6-20.3,7.7-28.8c5.2-8.4,12.3-15,21.5-19.8s19.5-7.1,31.1-7.1,21.3,2.4,29.9,7.1c8.5,4.8,14.7,11.6,18.6,20.4l-24.3,13.1c-5.6-9.9-13.7-14.9-24.3-14.9s-14.9,2.7-20.3,8c-5.4,5.4-8,12.7-8,21.9s2.7,16.6,8,21.9c5.4,5.4,12.1,8,20.3,8s18.8-5,24.3-14.9l24.3,13.3c-3.9,8.6-10.1,15.3-18.6,20.1-8.5,4.8-18.5,7.2-29.9,7.2-11.5.2-21.9-2.2-31.1-6.9Z"/>
    <path class="st0" d="M1075.7,364.1c8.2,4.6,14.7,11.1,19.4,19.5,4.7,8.4,7,18.1,7,29.3s-2.3,20.9-7,29.3-11.2,14.9-19.4,19.5-17.4,6.9-27.4,6.9-24.7-4.4-32.6-13.1v50.5h-31.4v-147.2h30v12.5c7.8-9.4,19.1-14.1,34-14.1,10,0,19.2,2.3,27.4,6.9ZM1062.7,434.7c5.2-5.4,7.7-12.7,7.7-21.8s-2.6-16.4-7.7-21.8c-5.2-5.4-11.8-8.1-19.8-8.1s-14.6,2.7-19.8,8.1-7.7,12.7-7.7,21.8,2.6,16.4,7.7,21.8c5.2,5.4,11.8,8.1,19.8,8.1s14.6-2.7,19.8-8.1Z"/>
    <path class="st0" d="M1168.2,361.2c6.4-2.7,13.7-4,22-4v29c-3.5-.3-5.8-.4-7-.4-9,0-16,2.5-21.1,7.5s-7.6,12.6-7.6,22.6v51.1h-31.4v-108.2h30v14.3c3.7-5.2,8.8-9.2,15.1-11.9Z"/>
    <path class="st0" d="M1228.7,461.5c-9-4.8-16.1-11.4-21.2-19.8s-7.6-18-7.6-28.8,2.5-20.3,7.6-28.8c5.1-8.4,12.2-15,21.2-19.8s19.3-7.1,30.7-7.1,21.6,2.4,30.6,7.1c9,4.8,16,11.4,21.1,19.8s7.6,18,7.6,28.8-2.5,20.3-7.6,28.8c-5.1,8.4-12.1,15-21.1,19.8s-19.2,7.1-30.6,7.1-21.6-2.4-30.7-7.1ZM1279.2,434.7c5.2-5.4,7.7-12.7,7.7-21.8s-2.6-16.4-7.7-21.8c-5.2-5.4-11.8-8.1-19.8-8.1s-14.7,2.7-19.9,8.1c-5.2,5.4-7.8,12.7-7.8,21.8s2.6,16.4,7.8,21.8c5.2,5.4,11.9,8.1,19.9,8.1,8.1,0,14.7-2.7,19.8-8.1Z"/>
    <path class="st0" d="M1374,361.2h27.7v24.1h-26.9v81.7h-31.4v-81.6h-16.7v-24.1h16.7v-4.8c0-12.3,3.7-22.1,11-29.4,7.3-7.2,17.6-10.9,30.9-10.9s9.1.5,13.4,1.5,7.7,2.4,10.6,4.3l-8.2,22.7c-3.6-2.5-7.8-3.8-12.7-3.8-9.5,0-14.3,5.2-14.3,15.7v4.6h0ZM1435.2,338.7c-3.6-3.3-5.4-7.5-5.4-12.5s1.8-9.1,5.4-12.5c3.6-3.3,8.3-5,14.1-5s10.5,1.6,14.1,4.8,5.4,7.2,5.4,12.1-1.8,9.6-5.4,13-8.3,5.1-14.1,5.1-10.5-1.7-14.1-5ZM1433.5,358.8h31.4v108.2h-31.4v-108.2Z"/>
    <path class="st0" d="M1494.1,317.8h31.4v149.2h-31.4v-149.2Z"/>
    <path class="st0" d="M1660,421.7h-81.8c1.5,6.7,5,12,10.5,15.9s12.3,5.8,20.5,5.8,10.6-.8,15-2.5,8.4-4.3,12.2-7.9l16.7,18.1c-10.2,11.7-25.1,17.5-44.6,17.5s-23-2.4-32.4-7.1c-9.4-4.8-16.6-11.4-21.7-19.8s-7.6-18-7.6-28.8,2.5-20.1,7.5-28.7c5-8.5,11.9-15.1,20.7-19.9,8.8-4.8,18.6-7.1,29.5-7.1s20.2,2.3,28.8,6.8c8.6,4.6,15.3,11.1,20.2,19.6,4.9,8.5,7.3,18.4,7.3,29.7-.2.4-.4,3.2-.8,8.4ZM1586.6,387c-4.8,4-7.8,9.5-8.8,16.5h53.3c-1.1-6.8-4-12.3-8.8-16.4s-10.7-6.1-17.7-6.1c-7.2-.1-13.2,1.9-18,6Z"/>
  </g>
</svg>