<?xml version="1.0" encoding="UTF-8"?>
<svg id="_Слой_1" xmlns="http://www.w3.org/2000/svg" version="1.1" xmlns:xlink="http://www.w3.org/1999/xlink" viewBox="0 0 2000 633.7">
  <!-- Generator: Adobe Illustrator 29.3.1, SVG Export Plug-In . SVG Version: 2.1.0 Build 151)  -->
  <defs>
    <style>
      .st0 {
        fill: url(#_Безымянный_градиент_2);
      }

      .st0, .st1, .st2 {
        fill-rule: evenodd;
      }

      .st1 {
        fill: #e3000f;
      }

      .st2, .st3 {
        fill: #fff;
      }

      .st4 {
        fill: none;
      }

      .st3 {
        isolation: isolate;
        opacity: .5;
      }

      .st5 {
        fill: url(#_Безымянный_градиент);
      }

      .st6 {
        clip-path: url(#clippath);
      }
    </style>
    <clipPath id="clippath">
      <path class="st4" d="M367.4,241.4c-5.2-26.7-16.6-47.2-34.2-60.9-17.6-13.3-41-20.5-70.9-19.5-30.5,2.9-54.3,12.9-72.4,30-17.6,16.6-29,40-34.2,68-1.4,24.7,2.3,46.2,12.4,64.7,10,18.6,25.3,33.4,46.7,45.8,28,14.3,47.6,28.6,59.5,43.9,12,15.3,17.2,31.5,16.2,48.5,0,5.2,0,11-.4,16.2,0,7.6,3.8,11.4,10,12.4,8.1,0,17.6-3.8,28.6-12,30-23.8,56.2-47.2,78.6-69,22.4-21.9,41-43.3,55.3-63.4,0-3.3-.4-6.7-.4-10.4v-32.4c0-10,1-18.1,2.9-23.8,1.9-5.8,5.2-10.4,10-13.7,3.8-2.9,9.5-5.2,16.2-6.2,3.3-.4,7.1-1,12-1.4,0-1.9,0-3.8.4-5.8,1-45.8-25.3-68.6-75.2-68.6-17.2,1-28.6,10.4-38.6,20.1-10,9.6-17.2,22.4-21.4,38.1M318.7,378h-41.4c-6.2-20.1-12.9-40-19.1-59.5-6.2-20.1-12.9-40-19.1-60.1h36.2c4.3,14.3,8.1,28.6,12.4,42.3,4.3,14.3,8.1,28.6,12.4,42.3,5.2-14.3,10-28.6,15.3-42.3,5.2-14.3,10-28.6,15.3-42.3h33.4c4.8,14.3,9.5,28.6,14.3,42.3,4.8,14.3,9.5,28.6,14.3,42.3,4.3-14.3,8.5-28.6,12.9-42.3,4.3-14.3,8.5-28.6,13.3-42.3h36.2c-6.7,20.1-13.3,40-20.1,60.1-6.7,20.1-13.3,40-20.1,59.5h-41c-9.1-27.6-18.6-54.7-27.6-82.3-9.5,27.6-18.6,54.7-28,82.3h.5Z"/>
    </clipPath>
    <linearGradient id="_Безымянный_градиент" data-name="Безымянный градиент" x1="328.8" y1="159.7" x2="328.8" y2="490.2" gradientTransform="translate(0 .7)" gradientUnits="userSpaceOnUse">
      <stop offset="0" stop-color="#af1e1f"/>
      <stop offset=".4" stop-color="#e5290e"/>
      <stop offset=".8" stop-color="#e4250e"/>
      <stop offset="1" stop-color="#d1131a"/>
    </linearGradient>
    <linearGradient id="_Безымянный_градиент_2" data-name="Безымянный градиент 2" x1="297" y1="603.7" x2="297" y2="918.4" gradientTransform="translate(0 1000) scale(1 -1)" gradientUnits="userSpaceOnUse">
      <stop offset="0" stop-color="#fff" stop-opacity=".3"/>
      <stop offset=".6" stop-color="#fff" stop-opacity=".5"/>
    </linearGradient>
  </defs>
  <path class="st3" d="M1845.7,494.2h8.5c5.2,0,8.5-.4,11-1.9s3.3-3.3,3.3-5.8-1-3.8-2.3-5.8c-1.4-1.4-5.2-2.3-10.4-2.3h-9.5v15.7h-.5ZM1837.6,452.8h8.1v18.6h10c6.7,0,12,1.4,15.3,3.8,3.8,2.3,5.2,6.2,5.2,10.4s-1.4,7.1-4.3,10c-2.9,2.9-7.6,4.3-14.3,4.3h-20.1v-47.6.4h0ZM1882.4,452.8h8.1v47.6h-8.1v-47.6ZM1796.7,459.9c-.4,15.3-2.9,26.7-7.1,34.2h25.7v-34.2h-18.6ZM1790.1,452.8h33.4v41h5.2v20.1h-6.7v-13.3h-37.7v13.3h-6.7v-20.1h4.3c5.8-7.6,8.5-21.4,8.1-41h.1ZM1754.3,452.8h27.6v6.7h-19.5v41h-8.1v-47.6h0ZM1708.5,476.6c0,6.2,1.4,10.4,3.8,13.7,2.9,2.9,6.2,4.8,10,4.8s7.1-1.4,10-4.8c2.9-2.9,3.8-7.6,3.8-13.7s-1.4-10.4-3.8-13.3c-2.9-2.9-6.2-4.8-10-4.8s-7.1,1.4-10,4.8c-2.9,2.9-3.8,7.6-3.8,13.7v-.4ZM1700.4,476.6c0-9.1,2.3-15.3,7.1-19.5,4.3-3.3,9.1-5.2,14.7-5.2s12,1.9,16.2,6.7c4.3,4.3,6.2,10,6.2,17.6s-1,11-2.9,14.3-4.3,6.2-8.1,8.1c-3.3,1.9-7.1,2.9-11.4,2.9-6.7,0-12-1.9-16.2-6.2s-6.2-10.4-6.2-18.6h.6ZM1652.9,452.8h37.7v47.6h-8.1v-41h-21.4v23.8c0,5.8,0,9.1-.4,11,0,1.9-1.4,3.3-2.9,4.8-1.4,1.4-3.8,1.9-7.1,1.9h-6.7v-6.7h3.3c1.9,0,2.9,0,3.8-.4,1,0,1.4-1,1.4-1.4v-38.6l.4-1h.1ZM1604.7,476.6c0,6.2,1.4,10.4,3.8,13.7,2.9,2.9,6.2,4.8,10,4.8s7.1-1.4,10-4.8c2.9-2.9,3.8-7.6,3.8-13.7s-1.4-10.4-3.8-13.3c-2.9-2.9-6.2-4.8-10-4.8s-7.1,1.4-10,4.8c-2.9,2.9-3.8,7.6-3.8,13.7v-.4ZM1596.6,476.6c0-9.1,2.3-15.3,7.1-19.5,4.3-3.3,9.1-5.2,14.7-5.2s12,1.9,16.2,6.7c4.3,4.3,6.2,10,6.2,17.6s-1,11-2.9,14.3-4.3,6.2-8.1,8.1c-3.3,1.9-7.1,2.9-11.4,2.9-6.7,0-12-1.9-16.2-6.2s-6.2-10.4-6.2-18.6h.6ZM1547.6,492.8h21.9c1.9,0,3.8-1,5.2-1.9,1.4-1,2.3-1.9,3.3-3.8,1-1.4,1.4-3.3,1.4-5.8s-.4-4.8-1.9-6.2c-1.4-1.9-2.9-2.9-5.2-3.8-2.3-1-5.2-1-9.5-1h-15.3v22.4h.1ZM1547.6,462.3h14.3c3.8,0,6.7,0,8.1-1,2.3-.4,3.8-1.9,4.8-3.3s1.9-3.3,1.9-5.8-.4-4.3-1.4-5.8c-1-1.9-2.3-2.9-4.3-3.3s-5.2-1-10-1h-13.3v20.1h-.1ZM1539,500.5v-65.7h24.7c5.2,0,9.1.4,12,1.9s5.2,3.3,7.1,6.2c1.9,2.9,2.3,5.8,2.3,8.5s-1,5.2-2.3,8.1c-1.4,2.3-3.8,4.3-6.7,6.2,3.8,1,7.1,3.3,9.1,6.2s3.3,6.2,3.3,10-.4,5.8-1.9,8.5c-1.4,2.9-2.9,4.8-4.8,6.2s-4.3,2.3-7.1,3.3-6.2,1-10.4,1h-25.3v-.4h.1ZM1468.1,472.3h26.7c0-3.8-1.4-7.1-2.9-9.1-2.3-3.3-5.8-4.8-10-4.8s-6.7,1.4-9.5,3.8c-2.3,2.3-3.8,5.8-4.3,10h0ZM1494.2,485.2l8.5,1c-1.4,4.8-3.8,8.5-7.1,11.4s-8.1,3.8-13.7,3.8-12.4-1.9-16.6-6.2-6.2-10.4-6.2-18.1,1.9-14.3,6.2-18.6,9.5-6.7,16.2-6.7,11.4,2.3,15.7,6.7c3.8,4.3,6.2,10.4,6.2,18.1s0,1.4,0,2.3h-35.7c0,5.2,1.9,9.1,4.3,12,2.9,2.9,6.2,4.3,10,4.3s5.2-1,7.6-2.3c1.9-1.4,3.8-3.8,4.8-7.6h0ZM1410.4,452.8h8.1v41h22.4v-41h8.1v41h5.2v20.1h-6.7v-13.3h-37.1v-47.6h0ZM1370,459.9c-.4,15.3-2.9,26.7-7.1,34.2h25.7v-34.2h-18.6ZM1363.2,452.8h33.4v41h5.2v20.1h-6.7v-13.3h-37.7v13.3h-6.7v-20.1h4.3c5.8-7.6,8.5-21.4,8.1-41h.1ZM1315.1,477.1c0,6.2,1.4,10.4,3.8,13.7,2.3,2.9,5.8,4.3,9.1,4.3s6.7-1.4,9.1-4.8c2.3-2.9,3.8-7.6,3.8-14.3s-1.4-10.4-3.8-13.7c-2.3-2.9-5.8-4.8-9.1-4.8s-6.7,1.4-9.1,4.8c-2.9,3.3-3.8,8.1-3.8,13.7v1h0ZM1307.5,519v-65.7h7.1v6.2c1.9-2.3,3.8-4.3,5.8-5.2,2.3-1.4,4.8-1.9,8.1-1.9s7.6,1,11,3.3c3.3,1.9,5.2,5.2,7.1,9.1,1.4,3.8,2.3,8.1,2.3,12.4s-1,9.1-2.9,13.3c-1.9,3.8-4.3,6.7-7.6,9.1-3.3,1.9-6.7,3.3-10.4,3.3s-5.2-.4-7.1-1.9c-2.3-1-3.8-2.3-5.2-4.3v23.4h-8.1v-1h-.1ZM1262.7,472.3h26.7c0-3.8-1.4-7.1-2.9-9.1-2.3-3.3-5.8-4.8-10-4.8s-6.7,1.4-9.5,3.8c-2.3,2.3-3.8,5.8-4.3,10h0ZM1289.4,485.2l8.5,1c-1.4,4.8-3.8,8.5-7.1,11.4s-8.1,3.8-13.7,3.8-12.4-1.9-16.6-6.2-6.2-10.4-6.2-18.1,1.9-14.3,6.2-18.6,9.5-6.7,16.2-6.7,11.4,2.3,15.7,6.7c3.8,4.3,6.2,10.4,6.2,18.1s0,1.4,0,2.3h-35.7c0,5.2,1.9,9.1,4.3,12,2.9,2.9,6.2,4.3,10,4.3s5.8-1,7.6-2.3,3.8-3.8,4.8-7.6h0ZM1238.5,477.5l8.5,2.3c-1.9,7.1-5.2,12.4-10,16.2-4.8,3.8-10.4,5.8-17.2,5.8s-12.9-1.4-17.2-4.3-7.6-7.1-10-12.4c-2.3-5.8-3.3-11.4-3.3-17.6s1.4-12.9,3.8-18.1c2.3-5.2,6.2-9.1,11-11.4,4.8-2.9,10-3.8,15.7-3.8s12,1.9,16.6,5.2c4.3,3.3,7.6,8.1,9.5,14.3l-8.5,1.9c-1.4-4.8-3.8-8.1-6.7-10.4s-6.7-3.3-11-3.3-9.1,1.4-12.9,3.8c-3.3,2.3-5.8,5.8-7.1,10-1.4,4.3-1.9,8.1-1.9,12.4s1,10.4,2.3,14.7,4.3,7.1,7.6,9.5c3.3,1.9,7.1,2.9,11,2.9s9.1-1.4,12.4-4.3,5.8-7.1,6.7-12.4l.4-1h.4Z"/>
  <path class="st2" d="M333,138.4l1.4-2.3c1.9-3.8,7.1-5.2,11-3.3l2.3,1.4c3.8,1.9,5.2,7.1,3.3,11l-1.4,2.3c-1.9,3.8-7.1,5.2-11,3.3l-2.3-1.4c-3.8-1.9-5.2-7.1-3.3-11"/>
  <path class="st2" d="M1740,258.4h36.7v71.5c0,8.1,1.9,13.7,5.8,16.2,3.8,2.9,12,4.3,24.3,4.3h20.9c10.4,0,17.2-1.4,20.5-4.3s5.2-8.1,5.2-16.2v-71.5h36.7v82.9c0,14.3-3.8,24.3-11.4,30-7.6,5.8-20.9,9.1-39.6,9.1h-41c-21.9,0-37.1-2.9-45.2-8.5-8.1-5.8-12.4-15.7-12.4-30.5v-82.9h-.5ZM1667.6,258.4c19.1,0,31.9,2.9,39,8.5,6.7,5.8,10.4,16.2,10.4,30.9s-1.4,18.1-4.8,23.4c-2.9,5.2-8.1,8.5-15.3,10,6.2,1.4,11,4.3,14.3,8.1s4.8,8.5,4.8,14.7v24.7h-36.7v-18.1c0-4.8-1-8.1-3.3-9.5-2.3-1.9-6.7-2.9-13.3-2.9h-54.7v30.9h-36.7v-120.6h96.6l-.4-.4h0ZM1666.2,288.5h-58.6v29.6h58.6c4.8,0,8.5-1,10.4-3.3,1.9-2.3,2.9-6.2,2.9-12.4s-1-8.1-3.3-10.4c-1.9-2.3-5.8-3.3-10-3.3h0ZM1534.8,378.5h-34.2v-34.2h34.2v34.2ZM1340.4,378.5h-40l65.7-120.6h46.7l64.3,120.6h-40.4l-11.4-20.1h-73.4l-12,20.1h.4,0ZM1366.1,329.5h46.2l-23.4-42.3-22.8,42.3h0ZM1240.9,258.4c18.6,0,31.9,3.3,40,9.5,8.5,6.2,12.4,16.6,12.4,30.9v41.4c0,13.3-3.3,23.4-10,29-6.7,6.2-17.2,9.1-31.9,9.1h-116.2v-120.6h105.3l.4.4v.3ZM1229.9,288h-57.6v61.4h62.4c7.6,0,13.3-1.4,17.2-4.8,3.8-3.3,5.2-8.1,5.2-14.7v-20.9c0-7.1-2.3-12.4-6.7-15.7-4.3-3.3-11.4-4.8-20.5-4.8v-.4h0ZM1075.1,301.8h0c0-5.8-1.9-9.5-5.2-12-3.3-1.9-11-2.9-22.4-2.9h-21.4c-12.4,0-20.5,1.4-24.3,4.3-3.3,2.9-5.2,9.5-5.2,19.1v16.6c0,8.5,1.9,14.7,6.2,17.6,3.8,3.3,12,4.8,23.4,4.8h21.4c10.4,0,17.6-1,21.9-2.9,3.8-1.9,6.2-5.2,6.2-10s0-1.9,0-3.3h-43.3v-24.3h81.4v39.6c0,11.4-4.3,19.5-12.4,24.3-8.5,4.8-22.8,7.1-43.9,7.1h-41c-12.4,0-21.9-.4-27.6-1.9-6.2-1.4-11-3.8-15.3-6.7-4.8-3.8-8.5-8.5-10.4-14.3-2.3-5.8-3.3-12.9-3.3-20.9v-32.9c0-17.2,4.3-29,12.4-36.2,8.1-6.7,22.8-10,44.3-10h41c13.3,0,22.8.4,29.6,1.9,6.2,1,11.4,3.3,14.7,6.2,3.8,2.9,6.7,6.7,8.5,12,1.9,4.8,2.9,11,2.9,18.6s0,3.3,0,4.3v2.9h-36.7l-1.4-1h.1ZM846.5,350h23.4c12.9,0,21.4-1.4,25.7-4.8s6.2-9.5,6.2-18.1v-17.2c0-9.1-1.9-14.7-6.2-18.1-4.3-3.3-12.9-4.8-25.7-4.8h-23.4c-13.3,0-21.9,1.4-26.3,4.8-4.3,3.3-6.2,9.5-6.2,18.6v16.6c0,8.5,2.3,14.7,6.7,17.6,4.3,3.3,12.9,4.8,25.7,4.8v.7ZM836.4,379.9c-13.7,0-24.3-.4-30.9-1.9s-12-3.3-15.7-6.7c-4.8-3.3-8.1-8.1-10-13.3-1.9-5.8-2.9-12.9-2.9-22.4v-32.9c0-10,1-18.1,2.9-23.8,1.9-5.8,5.2-10.4,10-13.7,4.3-2.9,9.5-5.2,16.2-6.7,6.7-1.4,16.6-1.9,30.5-1.9h43.3c13.7,0,23.8.4,30.5,1.9s12,3.3,16.2,6.7c4.3,3.3,7.6,8.1,10,13.7,1.9,5.8,3.3,13.3,3.3,22.4v33.4c0,9.1-1,16.6-3.3,22.4-1.9,5.8-5.2,10.4-10,13.7-3.8,2.9-9.5,5.2-16.2,6.7s-16.6,1.9-30.9,1.9h-42.9v.4h-.1ZM685.1,349.4h80v29h-116.7v-120.6h36.7v91.4h0ZM530.7,350h23.4c12.9,0,21.4-1.4,25.7-4.8s6.2-9.5,6.2-18.1v-17.2c0-9.1-1.9-14.7-6.2-18.1-4.3-3.3-12.9-4.8-25.7-4.8h-23.4c-13.3,0-21.9,1.4-26.3,4.8s-6.2,9.5-6.2,18.6v16.6c0,8.5,2.3,14.7,6.7,17.6,4.3,3.3,11.5,5.2,24.3,5.2h1.4v.3ZM520.7,379.9c-13.7,0-24.3-.4-30.9-1.9s-12-3.3-15.7-6.7c-4.8-3.3-8.1-8.1-10-13.3-1.4-3.3-1.9-7.1-2.3-11.4,23.4-32.4,37.1-61.9,40.4-89.1,5.2,0,11.4-.4,18.6-.4h43.3c13.7,0,23.8.4,30.5,1.9,6.7,1.5,12,3.3,16.2,6.7,4.3,3.3,7.6,8.1,10,13.7,1.9,5.8,3.3,13.3,3.3,22.4v33.4c0,9.1-1,16.6-3.3,22.4-1.9,5.8-5.2,10.4-10,13.7-3.8,2.9-9.5,5.2-16.2,6.7s-16.6,1.9-30.9,1.9h-42.9Z"/>
  <g class="st6">
    <rect class="st5" x="154" y="160.4" width="349.6" height="330.5"/>
  </g>
  <path class="st1" d="M128.8,150.3l4.8-5.2c7.6-8.5,20.9-10,29.6-2.3l5.2,4.8c8.5,7.6,10,20.9,2.3,29.6l-4.8,5.2c-7.6,8.5-20.9,10-29.6,2.3l-5.2-4.8c-8.5-7.6-10-20.9-2.3-29.6"/>
  <path class="st1" d="M135.9,226.5c-1,18.1-3.3,36.7-1.4,54.7,1.9,18.1,7.6,35.7,12,53.9l-1.9,1.4c-13.7-15.3-28.6-29-36.7-48.1-8.1-20.5-8.5-42.9-11.4-64.7,1-11,10-19.1,20.9-18.1,11,1,19.1,10,18.1,20.9"/>
  <path class="st1" d="M326.8,140.3l2.3-3.8c3.3-6.2,11.4-8.5,18.1-5.2l3.8,2.3c6.2,3.3,8.5,11.4,5.2,18.1l-2.3,3.8c-3.3,6.2-11.4,8.5-18.1,5.2l-3.8-2.3c-6.2-3.3-8.5-11.4-5.2-18.1"/>
  <path class="st1" d="M207.4,105.1c12-3.8,23.4-8.5,35.2-9.1,13.3-1,26.3,2.3,39,4.3,8.5,2.3,14.3,12.9,12.4,23.4s-10.4,17.2-19.5,14.7c-10-1.4-20.5-3.8-30.5-3.3-8.5,0-16.6,3.8-24.7,6.2-8.1,4.3-17.6-.4-21.4-10.4-3.3-10,.4-21.4,9.1-25.7"/>
  <path class="st1" d="M167.8,349.4c-7.6,0-13.7,6.2-13.7,13.7s6.2,13.7,13.7,13.7,13.7-6.2,13.7-13.7-6.2-13.7-13.7-13.7"/>
  <path class="st1" d="M195.4,373.7c-7.6,0-13.7,6.2-13.7,13.7s6.2,13.7,13.7,13.7,13.7-6.2,13.7-13.7-6.2-13.7-13.7-13.7"/>
  <path class="st0" d="M361.2,249.5c-9.1-37.7-25.3-60.1-49.1-67.6-46.7-14.7-86.2-7.1-118.1,22.8-30.9,40-37.1,76.2-18.1,109.6,21.9,9.5,47.2,7.1,78.6-8.1-4.8-14.7-10-31.5-15.3-47.2h36.2c2.9,10.4,6.7,22.8,10,34.8,8.5-2.3,20.1-3.8,33.8-3.3,4.8-12.9,8.5-23.8,11.4-31.5h33.4c3.3,10,7.1,20.9,10,30,8.1,2.9,19.5,4.3,34.2,4.3,3.8-12.9,7.6-24.7,10.4-34.2h36.2c-3.3,10-7.1,21.4-11.4,33.4,2.3-1.4,7.1-1.4,16.6-.4,0-1,1.9-1.4,1.9-2.3,2.9-18.1,11.4-28,29-29.6,3.3-26.3-4.3-46.2-22.4-59.1-26.3-11-47.6-11-64.7,0-14.7,10.4-24.3,24.7-29,43.9-1.9,5.2-3.8,8.1-6.7,7.6-4.3,0-6.7,0-7.6-2.9M136.3,149.4l2.9-3.3c4.8-5.2,12.9-6.2,18.1-1.4l3.3,2.9c5.2,4.8,6.2,12.9,1.4,18.1l-2.9,3.3c-4.8,5.2-12.9,6.2-18.1,1.4l-3.3-2.9c-5.2-4.8-6.2-12.9-1.4-18.1M105.9,258.9c-2.3-13.7-3.8-24.3-3.8-30.5,0-10,4.3-15.3,13.3-15.7,9.5.4,14.7,4.8,15.7,12.9.4,2.3,0,13.3-2.3,32.4-1,4.8-3.3,7.1-8.1,8.1-8.1,0-12.9-1.9-14.7-7.1M215.9,107.5c9.1-1.9,19.1-5.8,28.6-5.8s20.1,1.4,30.5,2.3c6.7,1.4,11,6.7,9.5,12-1.4,5.8-8.1,9.1-15.3,7.6-8.1-1-15.7-1.9-23.8-1.9s-13.3,3.3-19.5,4.3c-6.7,1.9-14.7,0-17.2-4.8-2.9-5.2,1-11,7.1-13.7M332.6,139.3l1.4-2.3c2.3-3.8,7.1-5.2,11.4-2.9l2.3,1.4c3.8,2.3,5.2,7.1,2.9,11.4l-1.4,2.3c-2.3,3.8-7.1,5.2-11.4,2.9l-2.3-1.4c-3.8-2.3-5.2-7.1-2.9-11.4"/>
</svg>