<?xml version="1.0" encoding="UTF-8"?>
<svg id="_Слой_1" data-name="Слой_1" xmlns="http://www.w3.org/2000/svg" version="1.1" xmlns:xlink="http://www.w3.org/1999/xlink" viewBox="0 0 2000 550">
  <!-- Generator: Adobe Illustrator 29.3.1, SVG Export Plug-In . SVG Version: 2.1.0 Build 151)  -->
  <defs>
    <style>
      .st0 {
        fill: url(#_Безымянный_градиент_17);
      }

      .st0, .st1, .st2, .st3 {
        fill-rule: evenodd;
      }

      .st1 {
        fill: #e3000f;
      }

      .st2 {
        fill: #fff;
      }

      .st4 {
        fill: none;
      }

      .st5 {
        fill: url(#_Безымянный_градиент_2);
      }

      .st3 {
        fill: #020204;
      }

      .st6 {
        clip-path: url(#clippath);
      }

      .st7 {
        opacity: .5;
      }
    </style>
    <clipPath id="clippath">
      <path class="st4" d="M369.8,208c-5.3-26.8-16.8-47.5-34.5-61.4-17.7-13.4-41.2-20.6-71.4-19.7-30.7,2.9-54.7,12.9-72.9,30.2-17.7,16.8-29.2,40.3-34.5,68.6-1.4,24.9,2.4,46.5,12.5,65.2s25.4,33.6,47,46c28.3,14.4,47.9,28.8,59.9,44.1,12,15.3,17.3,31.6,16.3,48.9,0,5.3,0,11-.5,16.3,0,7.7,3.8,11.5,10.1,12.5,8.2,0,17.7-3.8,28.8-12,30.2-24,56.6-47.5,79.1-69.5,22.5-22.1,41.2-43.6,55.6-63.8,0-3.4-.5-6.7-.5-10.5v-32.6c0-10.1,1-18.2,2.9-24,1.9-5.8,5.3-10.5,10.1-13.9,3.8-2.9,9.6-5.3,16.3-6.2,3.4-.5,7.2-1,12-1.4,0-1.9,0-3.8.5-5.8,1-46-25.4-69-75.7-69-17.3,1-28.8,10.5-38.8,20.1s-17.3,22.5-21.6,38.4M320.9,345.6h-41.7c-6.2-20.1-12.9-40.3-19.2-59.9-6.2-20.1-12.9-40.3-19.2-60.4h36.4c4.3,14.4,8.2,28.8,12.5,42.7,4.3,14.4,8.2,28.8,12.5,42.7,5.3-14.4,10.1-28.8,15.3-42.7,5.3-14.4,10.1-28.8,15.3-42.7h33.6c4.8,14.4,9.6,28.8,14.4,42.7,4.8,14.4,9.6,28.8,14.4,42.7,4.3-14.4,8.6-28.8,12.9-42.7,4.3-14.4,8.6-28.8,13.4-42.7h36.4c-6.7,20.1-13.4,40.3-20.1,60.4-6.7,20.1-13.4,40.3-20.1,59.9h-41.2c-9.1-27.8-18.7-55.1-27.8-82.9-9.6,27.8-18.7,55.1-28.3,82.9h.5Z"/>
    </clipPath>
    <linearGradient id="_Безымянный_градиент_2" data-name="Безымянный градиент 2" x1="331" y1="386.1" x2="331" y2="53.4" gradientTransform="translate(0 512.6) scale(1 -1)" gradientUnits="userSpaceOnUse">
      <stop offset="0" stop-color="#af1e1f"/>
      <stop offset=".4" stop-color="#e5290e"/>
      <stop offset=".8" stop-color="#e4250e"/>
      <stop offset="1" stop-color="#d1131a"/>
    </linearGradient>
    <linearGradient id="_Безымянный_градиент_17" data-name="Безымянный градиент 17" x1="299" y1="363.9" x2="299" y2="47.2" gradientUnits="userSpaceOnUse">
      <stop offset="0" stop-color="#fff" stop-opacity=".3"/>
      <stop offset=".6" stop-color="#fff" stop-opacity=".5"/>
    </linearGradient>
  </defs>
  <path class="st7" d="M1857.9,462.5h8.6c5.3,0,8.6-.5,11-1.9s3.4-3.4,3.4-5.8-1-3.8-2.4-5.8c-1.4-1.4-5.3-2.4-10.5-2.4h-9.6v15.8h-.5ZM1849.8,420.8h8.2v18.7h10.1c6.7,0,12,1.4,15.3,3.8,3.8,2.4,5.3,6.2,5.3,10.5s-1.4,7.2-4.3,10.1c-2.9,2.9-7.7,4.3-14.4,4.3h-20.1v-47.9.5ZM1894.8,420.8h8.2v47.9h-8.2v-47.9ZM1808.5,428c-.5,15.3-2.9,26.8-7.2,34.5h25.9v-34.5h-18.7ZM1801.8,420.8h33.6v41.2h5.3v20.1h-6.7v-13.4h-37.9v13.4h-6.7v-20.1h4.3c5.8-7.7,8.6-21.6,8.2-41.2h0ZM1765.9,420.8h27.8v6.7h-19.7v41.2h-8.2v-47.9h0ZM1719.8,444.8c0,6.2,1.4,10.5,3.8,13.9,2.9,2.9,6.2,4.8,10.1,4.8s7.2-1.4,10.1-4.8c2.9-2.9,3.8-7.7,3.8-13.9s-1.4-10.5-3.8-13.4c-2.9-2.9-6.2-4.8-10.1-4.8s-7.2,1.4-10.1,4.8c-2.9,2.9-3.8,7.7-3.8,13.9v-.5ZM1711.7,444.8c0-9.1,2.4-15.3,7.2-19.7,4.3-3.4,9.1-5.3,14.9-5.3s12,1.9,16.3,6.7c4.3,4.3,6.2,10.1,6.2,17.7s-1,11-2.9,14.4-4.3,6.2-8.2,8.2c-3.4,1.9-7.2,2.9-11.5,2.9-6.7,0-12-1.9-16.3-6.2s-6.2-10.5-6.2-18.7h.5ZM1663.8,420.8h37.9v47.9h-8.2v-41.2h-21.6v24c0,5.8,0,9.1-.5,11,0,1.9-1.4,3.4-2.9,4.8-1.4,1.4-3.8,1.9-7.2,1.9h-6.7v-6.7h3.4c1.9,0,2.9,0,3.8-.5,1,0,1.4-1,1.4-1.4v-38.8l.5-1ZM1615.3,444.8c0,6.2,1.4,10.5,3.8,13.9,2.9,2.9,6.2,4.8,10.1,4.8s7.2-1.4,10.1-4.8c2.9-2.9,3.8-7.7,3.8-13.9s-1.4-10.5-3.8-13.4c-2.9-2.9-6.2-4.8-10.1-4.8s-7.2,1.4-10.1,4.8c-2.9,2.9-3.8,7.7-3.8,13.9v-.5ZM1607.2,444.8c0-9.1,2.4-15.3,7.2-19.7,4.3-3.4,9.1-5.3,14.9-5.3s12,1.9,16.3,6.7c4.3,4.3,6.2,10.1,6.2,17.7s-1,11-2.9,14.4-4.3,6.2-8.2,8.2c-3.4,1.9-7.2,2.9-11.5,2.9-6.7,0-12-1.9-16.3-6.2s-6.2-10.5-6.2-18.7h.5ZM1557.8,461.1h22.1c1.9,0,3.8-1,5.3-1.9,1.4-1,2.4-1.9,3.4-3.8,1-1.4,1.4-3.4,1.4-5.8s-.5-4.8-1.9-6.2c-1.4-1.9-2.9-2.9-5.3-3.8-2.4-1-5.3-1-9.6-1h-15.3v22.5h0ZM1557.8,430.4h14.4c3.8,0,6.7,0,8.2-1,2.4-.5,3.8-1.9,4.8-3.4,1-1.4,1.9-3.4,1.9-5.8s-.5-4.3-1.4-5.8c-1-1.9-2.4-2.9-4.3-3.4s-5.3-1-10.1-1h-13.4v20.1h0ZM1549.2,468.8v-66.2h24.9c5.3,0,9.1.5,12,1.9s5.3,3.4,7.2,6.2c1.9,2.9,2.4,5.8,2.4,8.6s-1,5.3-2.4,8.2c-1.4,2.4-3.8,4.3-6.7,6.2,3.8,1,7.2,3.4,9.1,6.2,1.9,2.9,3.4,6.2,3.4,10.1s-.5,5.8-1.9,8.6c-1.4,2.9-2.9,4.8-4.8,6.2s-4.3,2.4-7.2,3.4-6.2,1-10.5,1h-25.4v-.5ZM1477.7,440.5h26.8c0-3.8-1.4-7.2-2.9-9.1-2.4-3.4-5.8-4.8-10.1-4.8s-6.7,1.4-9.6,3.8c-2.4,2.4-3.8,5.8-4.3,10.1ZM1504.1,453.4l8.6,1c-1.4,4.8-3.8,8.6-7.2,11.5-3.4,2.9-8.2,3.8-13.9,3.8s-12.5-1.9-16.8-6.2c-4.3-4.3-6.2-10.5-6.2-18.2s1.9-14.4,6.2-18.7,9.6-6.7,16.3-6.7,11.5,2.4,15.8,6.7c3.8,4.3,6.2,10.5,6.2,18.2s0,1.4,0,2.4h-36c0,5.3,1.9,9.1,4.3,12,2.9,2.9,6.2,4.3,10.1,4.3s5.3-1,7.7-2.4c1.9-1.4,3.8-3.8,4.8-7.7h0ZM1419.7,420.8h8.2v41.2h22.5v-41.2h8.2v41.2h5.3v20.1h-6.7v-13.4h-37.4v-47.9h0ZM1379,428c-.5,15.3-2.9,26.8-7.2,34.5h25.9v-34.5h-18.7ZM1372.3,420.8h33.6v41.2h5.3v20.1h-6.7v-13.4h-37.9v13.4h-6.7v-20.1h4.3c5.8-7.7,8.6-21.6,8.2-41.2h0ZM1323.8,445.3c0,6.2,1.4,10.5,3.8,13.9,2.4,2.9,5.8,4.3,9.1,4.3s6.7-1.4,9.1-4.8c2.4-2.9,3.8-7.7,3.8-14.4s-1.4-10.5-3.8-13.9c-2.4-2.9-5.8-4.8-9.1-4.8s-6.7,1.4-9.1,4.8c-2.9,3.4-3.8,8.2-3.8,13.9v1ZM1316.2,487.5v-66.2h7.2v6.2c1.9-2.4,3.8-4.3,5.8-5.3,2.4-1.4,4.8-1.9,8.2-1.9s7.7,1,11,3.4c3.4,1.9,5.3,5.3,7.2,9.1,1.4,3.8,2.4,8.2,2.4,12.5s-1,9.1-2.9,13.4c-1.9,3.8-4.3,6.7-7.7,9.1-3.4,1.9-6.7,3.4-10.5,3.4s-5.3-.5-7.2-1.9c-2.4-1-3.8-2.4-5.3-4.3v23.5h-8.2v-1ZM1271.1,440.5h26.8c0-3.8-1.4-7.2-2.9-9.1-2.4-3.4-5.8-4.8-10.1-4.8s-6.7,1.4-9.6,3.8c-2.4,2.4-3.8,5.8-4.3,10.1ZM1298,453.4l8.6,1c-1.4,4.8-3.8,8.6-7.2,11.5-3.4,2.9-8.2,3.8-13.9,3.8s-12.5-1.9-16.8-6.2-6.2-10.5-6.2-18.2,1.9-14.4,6.2-18.7,9.6-6.7,16.3-6.7,11.5,2.4,15.8,6.7c3.8,4.3,6.2,10.5,6.2,18.2s0,1.4,0,2.4h-36c0,5.3,1.9,9.1,4.3,12,2.9,2.9,6.2,4.3,10.1,4.3s5.8-1,7.7-2.4,3.8-3.8,4.8-7.7h0ZM1246.7,445.8l8.6,2.4c-1.9,7.2-5.3,12.5-10.1,16.3s-10.5,5.8-17.3,5.8-12.9-1.4-17.3-4.3c-4.3-2.9-7.7-7.2-10.1-12.5-2.4-5.8-3.4-11.5-3.4-17.7s1.4-12.9,3.8-18.2c2.4-5.3,6.2-9.1,11-11.5,4.8-2.9,10.1-3.8,15.8-3.8s12,1.9,16.8,5.3c4.3,3.4,7.7,8.2,9.6,14.4l-8.6,1.9c-1.4-4.8-3.8-8.2-6.7-10.5s-6.7-3.4-11-3.4-9.1,1.4-12.9,3.8c-3.4,2.4-5.8,5.8-7.2,10.1-1.4,4.3-1.9,8.2-1.9,12.5s1,10.5,2.4,14.9,4.3,7.2,7.7,9.6c3.4,1.9,7.2,2.9,11,2.9s9.1-1.4,12.5-4.3,5.8-7.2,6.7-12.5l.5-1Z"/>
  <path class="st2" d="M335.3,104.4l1.4-2.4c1.9-3.8,7.2-5.3,11-3.4l2.4,1.4c3.8,1.9,5.3,7.2,3.4,11l-1.4,2.4c-1.9,3.8-7.2,5.3-11,3.4l-2.4-1.4c-3.8-1.9-5.3-7.2-3.4-11"/>
  <path class="st3" d="M1751.5,225.2h36.9v71.9c0,8.2,1.9,13.9,5.8,16.3,3.8,2.9,12,4.3,24.5,4.3h21.1c10.5,0,17.3-1.4,20.6-4.3,3.4-2.9,5.3-8.2,5.3-16.3v-71.9h36.9v83.4c0,14.4-3.8,24.5-11.5,30.2-7.7,5.8-21.1,9.1-39.8,9.1h-41.2c-22.1,0-37.4-2.9-45.5-8.6-8.2-5.8-12.5-15.8-12.5-30.7v-83.4h-.5ZM1678.6,225.2c19.2,0,32.1,2.9,39.3,8.6,6.7,5.8,10.5,16.3,10.5,31.2s-1.4,18.2-4.8,23.5c-2.9,5.3-8.2,8.6-15.3,10.1,6.2,1.4,11,4.3,14.4,8.2,3.4,3.8,4.8,8.6,4.8,14.9v24.9h-36.9v-18.2c0-4.8-1-8.2-3.4-9.6-2.4-1.9-6.7-2.9-13.4-2.9h-55.1v31.2h-36.9v-121.3h97.3l-.5-.5ZM1677.2,255.4h-59v29.7h59c4.8,0,8.6-1,10.5-3.4,1.9-2.4,2.9-6.2,2.9-12.5s-1-8.2-3.4-10.5c-1.9-2.4-5.8-3.4-10.1-3.4h0ZM1544.9,346h-34.5v-34.5h34.5v34.5ZM1349.3,346h-40.3l66.2-121.3h47l64.7,121.3h-40.8l-11.5-20.1h-73.8l-12,20.1h.5ZM1375.1,296.7h46.5l-23.5-42.7-23,42.7h0ZM1249.1,225.2c18.7,0,32.1,3.4,40.3,9.6,8.6,6.2,12.5,16.8,12.5,31.2v41.7c0,13.4-3.4,23.5-10.1,29.2-6.7,6.2-17.3,9.1-32.1,9.1h-117v-121.3h106l.5.5ZM1238,254.9h-58v61.8h62.8c7.7,0,13.4-1.4,17.3-4.8,3.8-3.4,5.3-8.2,5.3-14.9v-21.1c0-7.2-2.4-12.5-6.7-15.8-4.3-3.4-11.5-4.8-20.6-4.8v-.5ZM1082.2,268.9h0c0-5.8-1.9-9.6-5.3-12-3.4-1.9-11-2.9-22.5-2.9h-21.6c-12.5,0-20.6,1.4-24.5,4.3-3.4,2.9-5.3,9.6-5.3,19.2v16.8c0,8.6,1.9,14.9,6.2,17.7,3.8,3.4,12,4.8,23.5,4.8h21.6c10.5,0,17.7-1,22.1-2.9,3.8-1.9,6.2-5.3,6.2-10.1s0-1.9,0-3.4h-43.6v-24.5h82v39.8c0,11.5-4.3,19.7-12.5,24.5-8.6,4.8-23,7.2-44.1,7.2h-41.2c-12.5,0-22.1-.5-27.8-1.9-6.2-1.4-11-3.8-15.3-6.7-4.8-3.8-8.6-8.6-10.5-14.4-2.4-5.8-3.4-12.9-3.4-21.1v-33.1c0-17.3,4.3-29.2,12.5-36.4,8.2-6.7,23-10.1,44.6-10.1h41.2c13.4,0,23,.5,29.7,1.9,6.2,1,11.5,3.4,14.9,6.2,3.8,2.9,6.7,6.7,8.6,12,1.9,4.8,2.9,11,2.9,18.7s0,3.4,0,4.3v2.9h-36.9l-1.4-1ZM852.1,317.3h23.5c12.9,0,21.6-1.4,25.9-4.8s6.2-9.6,6.2-18.2v-17.3c0-9.1-1.9-14.9-6.2-18.2-4.3-3.4-12.9-4.8-25.9-4.8h-23.5c-13.4,0-22.1,1.4-26.4,4.8-4.3,3.4-6.2,9.6-6.2,18.7v16.8c0,8.6,2.4,14.9,6.7,17.7,4.3,3.4,12.9,4.8,25.9,4.8v.5ZM842,347.5c-13.9,0-24.5-.5-31.2-1.9-6.7-1.4-12-3.4-15.8-6.7-4.8-3.4-8.2-8.2-10.1-13.4-1.9-5.8-2.9-12.9-2.9-22.5v-33.1c0-10.1,1-18.2,2.9-24,1.9-5.8,5.3-10.5,10.1-13.9,4.3-2.9,9.6-5.3,16.3-6.7,6.7-1.4,16.8-1.9,30.7-1.9h43.6c13.9,0,24,.5,30.7,1.9s12,3.4,16.3,6.7c4.3,3.4,7.7,8.2,10.1,13.9,1.9,5.8,3.4,13.4,3.4,22.5v33.6c0,9.1-1,16.8-3.4,22.5-1.9,5.8-5.3,10.5-10.1,13.9-3.8,2.9-9.6,5.3-16.3,6.7s-16.8,1.9-31.2,1.9h-43.1v.5ZM689.6,316.8h80.5v29.2h-117.5v-121.3h36.9v92ZM534.2,317.3h23.5c12.9,0,21.6-1.4,25.9-4.8s6.2-9.6,6.2-18.2v-17.3c0-9.1-1.9-14.9-6.2-18.2-4.3-3.4-12.9-4.8-25.9-4.8h-23.5c-13.4,0-22.1,1.4-26.4,4.8-4.3,3.4-6.2,9.6-6.2,18.7v16.8c0,8.6,2.4,14.9,6.7,17.7,4.3,3.4,11.6,5.3,24.5,5.3h1.4ZM524.2,347.5c-13.9,0-24.5-.5-31.2-1.9-6.7-1.4-12-3.4-15.8-6.7-4.8-3.4-8.2-8.2-10.1-13.4-1.4-3.4-1.9-7.2-2.4-11.5,23.5-32.6,37.4-62.3,40.8-89.7,5.3,0,11.5-.5,18.7-.5h43.6c13.9,0,24,.5,30.7,1.9,6.7,1.4,12,3.4,16.3,6.7,4.3,3.4,7.7,8.2,10.1,13.9,1.9,5.8,3.4,13.4,3.4,22.5v33.6c0,9.1-1,16.8-3.4,22.5-1.9,5.8-5.3,10.5-10.1,13.9-3.8,2.9-9.6,5.3-16.3,6.7-6.7,1.4-16.8,1.9-31.2,1.9h-43.1,0Z"/>
  <g class="st6">
    <rect class="st5" x="155" y="126.5" width="351.9" height="332.7"/>
  </g>
  <path class="st1" d="M129.6,116.4l4.8-5.3c7.7-8.6,21.1-10.1,29.7-2.4l5.3,4.8c8.6,7.7,10.1,21.1,2.4,29.7l-4.8,5.3c-7.7,8.6-21.1,10.1-29.7,2.4l-5.3-4.8c-8.6-7.7-10.1-21.1-2.4-29.7"/>
  <path class="st1" d="M136.8,193.1c-1,18.2-3.4,36.9-1.4,55.1,1.9,18.2,7.7,36,12,54.2l-1.9,1.4c-13.9-15.3-28.8-29.2-36.9-48.4-8.2-20.6-8.6-43.1-11.5-65.2,1-11,10.1-19.2,21.1-18.2,11,1,19.2,10.1,18.2,21.1"/>
  <path class="st1" d="M329.1,106.3l2.4-3.8c3.4-6.2,11.5-8.6,18.2-5.3l3.8,2.4c6.2,3.4,8.6,11.5,5.3,18.2l-2.4,3.8c-3.4,6.2-11.5,8.6-18.2,5.3l-3.8-2.4c-6.2-3.4-8.6-11.5-5.3-18.2"/>
  <path class="st1" d="M208.7,70.9c12-3.8,23.5-8.6,35.5-9.1,13.4-1,26.4,2.4,39.3,4.3,8.6,2.4,14.4,12.9,12.5,23.5-1.9,10.5-10.5,17.3-19.7,14.9-10.1-1.4-20.6-3.8-30.7-3.4-8.6,0-16.8,3.8-24.9,6.2-8.2,4.3-17.7-.5-21.6-10.5-3.4-10.1.5-21.6,9.1-25.9"/>
  <path class="st1" d="M168.9,316.8c-7.7,0-13.9,6.2-13.9,13.9s6.2,13.9,13.9,13.9,13.9-6.2,13.9-13.9-6.2-13.9-13.9-13.9"/>
  <path class="st1" d="M196.7,341.2c-7.7,0-13.9,6.2-13.9,13.9s6.2,13.9,13.9,13.9,13.9-6.2,13.9-13.9-6.2-13.9-13.9-13.9"/>
  <path class="st0" d="M363.6,216.1c-9.1-37.9-25.4-60.4-49.4-68.1-47-14.9-86.8-7.2-118.9,23-31.2,40.3-37.4,76.7-18.2,110.3,22.1,9.6,47.5,7.2,79.1-8.2-4.8-14.9-10.1-31.6-15.3-47.5h36.4c2.9,10.5,6.7,23,10.1,35,8.6-2.4,20.1-3.8,34-3.4,4.8-12.9,8.6-24,11.5-31.6h33.6c3.4,10.1,7.2,21.1,10.1,30.2,8.2,2.9,19.7,4.3,34.5,4.3,3.8-12.9,7.7-24.9,10.5-34.5h36.4c-3.4,10.1-7.2,21.6-11.5,33.6,2.4-1.4,7.2-1.4,16.8-.5,0-1,1.9-1.4,1.9-2.4,2.9-18.2,11.5-28.3,29.2-29.7,3.4-26.4-4.3-46.5-22.5-59.4-26.4-11-47.9-11-65.2,0-14.9,10.5-24.5,24.9-29.2,44.1-1.9,5.3-3.8,8.2-6.7,7.7-4.3,0-6.7,0-7.7-2.9M137.3,115.4l2.9-3.4c4.8-5.3,12.9-6.2,18.2-1.4l3.4,2.9c5.3,4.8,6.2,12.9,1.4,18.2l-2.9,3.4c-4.8,5.3-12.9,6.2-18.2,1.4l-3.4-2.9c-5.3-4.8-6.2-12.9-1.4-18.2M106.6,225.7c-2.4-13.9-3.8-24.5-3.8-30.7,0-10.1,4.3-15.3,13.4-15.8,9.6.5,14.9,4.8,15.8,12.9.5,2.4,0,13.4-2.4,32.6-1,4.8-3.4,7.2-8.2,8.2-8.2,0-12.9-1.9-14.9-7.2M217.3,73.2c9.1-1.9,19.2-5.8,28.8-5.8s20.1,1.4,30.7,2.4c6.7,1.4,11,6.7,9.6,12-1.4,5.8-8.2,9.1-15.3,7.7-8.2-1-15.8-1.9-24-1.9s-13.4,3.4-19.7,4.3c-6.7,1.9-14.9,0-17.3-4.8-2.9-5.3,1-11,7.2-13.9M334.8,105.4l1.4-2.4c2.4-3.8,7.2-5.3,11.5-2.9l2.4,1.4c3.8,2.4,5.3,7.2,2.9,11.5l-1.4,2.4c-2.4,3.8-7.2,5.3-11.5,2.9l-2.4-1.4c-3.8-2.4-5.3-7.2-2.9-11.5"/>
</svg>