<?xml version="1.0" encoding="UTF-8"?>
<svg id="_Слой_1" data-name="Слой_1" xmlns="http://www.w3.org/2000/svg" version="1.1" xmlns:xlink="http://www.w3.org/1999/xlink" viewBox="0 0 2000 1000">
  <!-- Generator: Adobe Illustrator 29.3.1, SVG Export Plug-In . SVG Version: 2.1.0 Build 151)  -->
  <defs>
    <style>
      .st0 {
        fill: url(#_Безымянный_градиент_17);
      }

      .st0, .st1, .st2 {
        fill-rule: evenodd;
      }

      .st3, .st4, .st2 {
        fill: #fff;
      }

      .st1 {
        fill: #e3000f;
      }

      .st4 {
        opacity: .5;
      }

      .st5 {
        fill: none;
      }

      .st6 {
        clip-path: url(#clippath-1);
      }

      .st7 {
        fill: url(#_Безымянный_градиент_2);
      }

      .st8 {
        clip-path: url(#clippath);
      }
    </style>
    <clipPath id="clippath">
      <path class="st3" d="M544.6,685.8c-3.8-19.4-12.1-34.3-24.9-44.3-12.8-9.7-29.8-14.9-51.6-14.2-22.2,2.1-39.5,9.4-52.7,21.8-12.8,12.1-21.1,29.1-24.9,49.5-1,18,1.7,33.6,9,47.1,7.3,13.5,18.4,24.3,34,33.3,20.4,10.4,34.6,20.8,43.3,31.9,8.7,11.1,12.5,22.9,11.8,35.3,0,3.8,0,8-.3,11.8,0,5.5,2.8,8.3,7.3,9,5.9,0,12.8-2.8,20.8-8.7,21.8-17.3,40.9-34.3,57.2-50.2s29.8-31.5,40.2-46.1c0-2.4-.3-4.9-.3-7.6v-23.6c0-7.3.7-13.2,2.1-17.3,1.4-4.2,3.8-7.6,7.3-10,2.8-2.1,6.9-3.8,11.8-4.5,2.4-.3,5.2-.7,8.7-1,0-1.4,0-2.8.3-4.2.7-33.3-18.4-49.9-54.7-49.9-12.5.7-20.8,7.6-28.1,14.6s-12.5,16.3-15.6,27.7M509.2,785.2h-30.1c-4.5-14.6-9.4-29.1-13.9-43.3-4.5-14.6-9.4-29.1-13.9-43.7h26.3c3.1,10.4,5.9,20.8,9,30.8,3.1,10.4,5.9,20.8,9,30.8,3.8-10.4,7.3-20.8,11.1-30.8,3.8-10.4,7.3-20.8,11.1-30.8h24.3c3.5,10.4,6.9,20.8,10.4,30.8,3.5,10.4,6.9,20.8,10.4,30.8,3.1-10.4,6.2-20.8,9.4-30.8,3.1-10.4,6.2-20.8,9.7-30.8h26.3c-4.9,14.6-9.7,29.1-14.6,43.7s-9.7,29.1-14.6,43.3h-29.8c-6.6-20.1-13.5-39.8-20.1-59.9-6.9,20.1-13.5,39.8-20.4,59.9h.3Z"/>
    </clipPath>
    <clipPath id="clippath-1">
      <path class="st5" d="M544.6,201.7c-3.8-19.4-12.1-34.3-24.9-44.3-12.8-9.7-29.8-14.9-51.6-14.2-22.2,2.1-39.5,9.4-52.7,21.8-12.8,12.1-21.1,29.1-24.9,49.5-1,18,1.7,33.6,9,47.1,7.3,13.5,18.4,24.3,34,33.3,20.4,10.4,34.6,20.8,43.3,31.9,8.7,11.1,12.5,22.9,11.8,35.3,0,3.8,0,8-.3,11.8,0,5.5,2.8,8.3,7.3,9,5.9,0,12.8-2.8,20.8-8.7,21.8-17.3,40.9-34.3,57.2-50.2,16.3-15.9,29.8-31.5,40.2-46.1,0-2.4-.3-4.9-.3-7.6v-23.6c0-7.3.7-13.2,2.1-17.3,1.4-4.2,3.8-7.6,7.3-10,2.8-2.1,6.9-3.8,11.8-4.5,2.4-.3,5.2-.7,8.7-1,0-1.4,0-2.8.3-4.2.7-33.3-18.4-49.9-54.7-49.9-12.5.7-20.8,7.6-28.1,14.6s-12.5,16.3-15.6,27.7M509.2,301.1h-30.1c-4.5-14.6-9.4-29.1-13.9-43.3-4.5-14.6-9.4-29.1-13.9-43.7h26.3c3.1,10.4,5.9,20.8,9,30.8,3.1,10.4,5.9,20.8,9,30.8,3.8-10.4,7.3-20.8,11.1-30.8,3.8-10.4,7.3-20.8,11.1-30.8h24.3c3.5,10.4,6.9,20.8,10.4,30.8,3.5,10.4,6.9,20.8,10.4,30.8,3.1-10.4,6.2-20.8,9.4-30.8,3.1-10.4,6.2-20.8,9.7-30.8h26.3c-4.9,14.6-9.7,29.1-14.6,43.7s-9.7,29.1-14.6,43.3h-29.8c-6.6-20.1-13.5-39.8-20.1-59.9-6.9,20.1-13.5,39.8-20.4,59.9h.3Z"/>
    </clipPath>
    <linearGradient id="_Безымянный_градиент_2" data-name="Безымянный градиент 2" x1="516.5" y1="857.9" x2="516.5" y2="617.5" gradientTransform="translate(0 1000.7) scale(1 -1)" gradientUnits="userSpaceOnUse">
      <stop offset="0" stop-color="#af1e1f"/>
      <stop offset=".4" stop-color="#e5290e"/>
      <stop offset=".8" stop-color="#e4250e"/>
      <stop offset="1" stop-color="#d1131a"/>
    </linearGradient>
    <linearGradient id="_Безымянный_градиент_17" data-name="Безымянный градиент 17" x1="493.4" y1="314.4" x2="493.4" y2="85.5" gradientUnits="userSpaceOnUse">
      <stop offset="0" stop-color="#fff" stop-opacity=".3"/>
      <stop offset=".6" stop-color="#fff" stop-opacity=".5"/>
    </linearGradient>
  </defs>
  <g>
    <path class="st4" d="M1620,869.8h6.2c3.8,0,6.2-.3,8-1.4s2.4-2.4,2.4-4.2-.7-2.8-1.7-4.2c-1-1-3.8-1.7-7.6-1.7h-6.9v11.4h-.3ZM1614.1,839.6h5.9v13.5h7.3c4.9,0,8.7,1,11.1,2.8,2.8,1.7,3.8,4.5,3.8,7.6s-1,5.2-3.1,7.3-5.5,3.1-10.4,3.1h-14.6v-34.6.3ZM1646.7,839.6h5.9v34.6h-5.9v-34.6ZM1584.3,844.8c-.3,11.1-2.1,19.4-5.2,24.9h18.7v-24.9h-13.5ZM1579.5,839.6h24.3v29.8h3.8v14.6h-4.9v-9.7h-27.4v9.7h-4.9v-14.6h3.1c4.2-5.5,6.2-15.6,5.9-29.8h0ZM1553.5,839.6h20.1v4.9h-14.2v29.8h-5.9v-34.6h0ZM1520.2,857c0,4.5,1,7.6,2.8,10,2.1,2.1,4.5,3.5,7.3,3.5s5.2-1,7.3-3.5c2.1-2.1,2.8-5.5,2.8-10s-1-7.6-2.8-9.7c-2.1-2.1-4.5-3.5-7.3-3.5s-5.2,1-7.3,3.5c-2.1,2.1-2.8,5.5-2.8,10v-.3ZM1514.3,857c0-6.6,1.7-11.1,5.2-14.2,3.1-2.4,6.6-3.8,10.7-3.8s8.7,1.4,11.8,4.9c3.1,3.1,4.5,7.3,4.5,12.8s-.7,8-2.1,10.4-3.1,4.5-5.9,5.9c-2.4,1.4-5.2,2.1-8.3,2.1-4.9,0-8.7-1.4-11.8-4.5-3.1-3.1-4.5-7.6-4.5-13.5h.3ZM1479.7,839.6h27.4v34.6h-5.9v-29.8h-15.6v17.3c0,4.2,0,6.6-.3,8,0,1.4-1,2.4-2.1,3.5-1,1-2.8,1.4-5.2,1.4h-4.9v-4.9h2.4c1.4,0,2.1,0,2.8-.3.7,0,1-.7,1-1v-28.1l.3-.7ZM1444.7,857c0,4.5,1,7.6,2.8,10,2.1,2.1,4.5,3.5,7.3,3.5s5.2-1,7.3-3.5c2.1-2.1,2.8-5.5,2.8-10s-1-7.6-2.8-9.7c-2.1-2.1-4.5-3.5-7.3-3.5s-5.2,1-7.3,3.5c-2.1,2.1-2.8,5.5-2.8,10v-.3ZM1438.8,857c0-6.6,1.7-11.1,5.2-14.2,3.1-2.4,6.6-3.8,10.7-3.8s8.7,1.4,11.8,4.9c3.1,3.1,4.5,7.3,4.5,12.8s-.7,8-2.1,10.4-3.1,4.5-5.9,5.9c-2.4,1.4-5.2,2.1-8.3,2.1-4.9,0-8.7-1.4-11.8-4.5s-4.5-7.6-4.5-13.5h.3ZM1403.1,868.7h15.9c1.4,0,2.8-.7,3.8-1.4,1-.7,1.7-1.4,2.4-2.8.7-1,1-2.4,1-4.2s-.3-3.5-1.4-4.5c-1-1.4-2.1-2.1-3.8-2.8-1.7-.7-3.8-.7-6.9-.7h-11.1v16.3h0ZM1403.1,846.6h10.4c2.8,0,4.9,0,5.9-.7,1.7-.3,2.8-1.4,3.5-2.4.7-1,1.4-2.4,1.4-4.2s-.3-3.1-1-4.2c-.7-1.4-1.7-2.1-3.1-2.4s-3.8-.7-7.3-.7h-9.7v14.6h0ZM1396.9,874.3v-47.8h18c3.8,0,6.6.3,8.7,1.4s3.8,2.4,5.2,4.5c1.4,2.1,1.7,4.2,1.7,6.2s-.7,3.8-1.7,5.9c-1,1.7-2.8,3.1-4.9,4.5,2.8.7,5.2,2.4,6.6,4.5,1.4,2.1,2.4,4.5,2.4,7.3s-.3,4.2-1.4,6.2c-1,2.1-2.1,3.5-3.5,4.5s-3.1,1.7-5.2,2.4-4.5.7-7.6.7h-18.4v-.3ZM1345.3,853.8h19.4c0-2.8-1-5.2-2.1-6.6-1.7-2.4-4.2-3.5-7.3-3.5s-4.9,1-6.9,2.8c-1.7,1.7-2.8,4.2-3.1,7.3ZM1364.3,863.2l6.2.7c-1,3.5-2.8,6.2-5.2,8.3s-5.9,2.8-10,2.8-9-1.4-12.1-4.5-4.5-7.6-4.5-13.2,1.4-10.4,4.5-13.5,6.9-4.9,11.8-4.9,8.3,1.7,11.4,4.9c2.8,3.1,4.5,7.6,4.5,13.2s0,1,0,1.7h-26c0,3.8,1.4,6.6,3.1,8.7,2.1,2.1,4.5,3.1,7.3,3.1s3.8-.7,5.5-1.7c1.4-1,2.8-2.8,3.5-5.5h0ZM1303.3,839.6h5.9v29.8h16.3v-29.8h5.9v29.8h3.8v14.6h-4.9v-9.7h-27v-34.6h0ZM1273.9,844.8c-.3,11.1-2.1,19.4-5.2,24.9h18.7v-24.9h-13.5ZM1269,839.6h24.3v29.8h3.8v14.6h-4.9v-9.7h-27.4v9.7h-4.9v-14.6h3.1c4.2-5.5,6.2-15.6,5.9-29.8h0ZM1234,857.3c0,4.5,1,7.6,2.8,10,1.7,2.1,4.2,3.1,6.6,3.1s4.9-1,6.6-3.5c1.7-2.1,2.8-5.5,2.8-10.4s-1-7.6-2.8-10c-1.7-2.1-4.2-3.5-6.6-3.5s-4.9,1-6.6,3.5c-2.1,2.4-2.8,5.9-2.8,10v.7ZM1228.5,887.8v-47.8h5.2v4.5c1.4-1.7,2.8-3.1,4.2-3.8,1.7-1,3.5-1.4,5.9-1.4s5.5.7,8,2.4c2.4,1.4,3.8,3.8,5.2,6.6,1,2.8,1.7,5.9,1.7,9s-.7,6.6-2.1,9.7c-1.4,2.8-3.1,4.9-5.5,6.6-2.4,1.4-4.9,2.4-7.6,2.4s-3.8-.3-5.2-1.4c-1.7-.7-2.8-1.7-3.8-3.1v17h-5.9v-.7ZM1195.9,853.8h19.4c0-2.8-1-5.2-2.1-6.6-1.7-2.4-4.2-3.5-7.3-3.5s-4.9,1-6.9,2.8c-1.7,1.7-2.8,4.2-3.1,7.3ZM1215.3,863.2l6.2.7c-1,3.5-2.8,6.2-5.2,8.3s-5.9,2.8-10,2.8-9-1.4-12.1-4.5-4.5-7.6-4.5-13.2,1.4-10.4,4.5-13.5c3.1-3.1,6.9-4.9,11.8-4.9s8.3,1.7,11.4,4.9c2.8,3.1,4.5,7.6,4.5,13.2s0,1,0,1.7h-26c0,3.8,1.4,6.6,3.1,8.7,2.1,2.1,4.5,3.1,7.3,3.1s4.2-.7,5.5-1.7,2.8-2.8,3.5-5.5h0ZM1178.3,857.7l6.2,1.7c-1.4,5.2-3.8,9-7.3,11.8s-7.6,4.2-12.5,4.2-9.4-1-12.5-3.1-5.5-5.2-7.3-9c-1.7-4.2-2.4-8.3-2.4-12.8s1-9.4,2.8-13.2c1.7-3.8,4.5-6.6,8-8.3,3.5-2.1,7.3-2.8,11.4-2.8s8.7,1.4,12.1,3.8c3.1,2.4,5.5,5.9,6.9,10.4l-6.2,1.4c-1-3.5-2.8-5.9-4.9-7.6s-4.9-2.4-8-2.4-6.6,1-9.4,2.8c-2.4,1.7-4.2,4.2-5.2,7.3s-1.4,5.9-1.4,9,.7,7.6,1.7,10.7,3.1,5.2,5.5,6.9c2.4,1.4,5.2,2.1,8,2.1s6.6-1,9-3.1,4.2-5.2,4.9-9l.3-.7Z"/>
    <g>
      <path class="st2" d="M515.1,612.4l1.7-2.8c2.4-4.5,8.3-6.2,13.2-3.8l2.8,1.7c4.5,2.4,6.2,8.3,3.8,13.2l-1.7,2.8c-2.4,4.5-8.3,6.2-13.2,3.8l-2.8-1.7c-4.5-2.4-6.2-8.3-3.8-13.2"/>
      <path class="st2" d="M1543.1,698.3h26.7v52c0,5.9,1.4,10,4.2,11.8,2.8,2.1,8.7,3.1,17.7,3.1h15.2c7.6,0,12.5-1,14.9-3.1,2.4-2.1,3.8-5.9,3.8-11.8v-52h26.7v60.3c0,10.4-2.8,17.7-8.3,21.8-5.5,4.2-15.2,6.6-28.8,6.6h-29.8c-15.9,0-27-2.1-32.9-6.2-5.9-4.2-9-11.4-9-22.2v-60.3h-.3ZM1490.4,698.3c13.9,0,23.2,2.1,28.4,6.2,4.9,4.2,7.6,11.8,7.6,22.5s-1,13.2-3.5,17c-2.1,3.8-5.9,6.2-11.1,7.3,4.5,1,8,3.1,10.4,5.9,2.4,2.8,3.5,6.2,3.5,10.7v18h-26.7v-13.2c0-3.5-.7-5.9-2.4-6.9-1.7-1.4-4.9-2.1-9.7-2.1h-39.8v22.5h-26.7v-87.7h70.3l-.3-.3ZM1489.4,720.1h-42.6v21.5h42.6c3.5,0,6.2-.7,7.6-2.4,1.4-1.7,2.1-4.5,2.1-9s-.7-5.9-2.4-7.6c-1.4-1.7-4.2-2.4-7.3-2.4h0ZM1393.8,785.6h-24.9v-24.9h24.9v24.9ZM1252.4,785.6h-29.1l47.8-87.7h34l46.8,87.7h-29.4l-8.3-14.6h-53.4l-8.7,14.6h.3ZM1271.1,749.9h33.6l-17-30.8-16.6,30.8h0ZM1180,698.3c13.5,0,23.2,2.4,29.1,6.9,6.2,4.5,9,12.1,9,22.5v30.1c0,9.7-2.4,17-7.3,21.1-4.9,4.5-12.5,6.6-23.2,6.6h-84.5v-87.7h76.6l.3.3ZM1172,719.8h-41.9v44.7h45.4c5.5,0,9.7-1,12.5-3.5,2.8-2.4,3.8-5.9,3.8-10.7v-15.2c0-5.2-1.7-9-4.9-11.4-3.1-2.4-8.3-3.5-14.9-3.5v-.3ZM1059.4,729.8h0c0-4.2-1.4-6.9-3.8-8.7-2.4-1.4-8-2.1-16.3-2.1h-15.6c-9,0-14.9,1-17.7,3.1-2.4,2.1-3.8,6.9-3.8,13.9v12.1c0,6.2,1.4,10.7,4.5,12.8,2.8,2.4,8.7,3.5,17,3.5h15.6c7.6,0,12.8-.7,15.9-2.1,2.8-1.4,4.5-3.8,4.5-7.3s0-1.4,0-2.4h-31.5v-17.7h59.2v28.8c0,8.3-3.1,14.2-9,17.7-6.2,3.5-16.6,5.2-31.9,5.2h-29.8c-9,0-15.9-.3-20.1-1.4-4.5-1-8-2.8-11.1-4.9-3.5-2.8-6.2-6.2-7.6-10.4-1.7-4.2-2.4-9.4-2.4-15.2v-23.9c0-12.5,3.1-21.1,9-26.3,5.9-4.9,16.6-7.3,32.2-7.3h29.8c9.7,0,16.6.3,21.5,1.4,4.5.7,8.3,2.4,10.7,4.5,2.8,2.1,4.9,4.9,6.2,8.7,1.4,3.5,2.1,8,2.1,13.5s0,2.4,0,3.1v2.1h-26.7l-1-.7ZM893.1,764.8h17c9.4,0,15.6-1,18.7-3.5s4.5-6.9,4.5-13.2v-12.5c0-6.6-1.4-10.7-4.5-13.2-3.1-2.4-9.4-3.5-18.7-3.5h-17c-9.7,0-15.9,1-19.1,3.5s-4.5,6.9-4.5,13.5v12.1c0,6.2,1.7,10.7,4.9,12.8,3.1,2.4,9.4,3.5,18.7,3.5v.3ZM885.8,786.6c-10,0-17.7-.3-22.5-1.4s-8.7-2.4-11.4-4.9c-3.5-2.4-5.9-5.9-7.3-9.7-1.4-4.2-2.1-9.4-2.1-16.3v-23.9c0-7.3.7-13.2,2.1-17.3,1.4-4.2,3.8-7.6,7.3-10,3.1-2.1,6.9-3.8,11.8-4.9,4.9-1,12.1-1.4,22.2-1.4h31.5c10,0,17.3.3,22.2,1.4s8.7,2.4,11.8,4.9c3.1,2.4,5.5,5.9,7.3,10,1.4,4.2,2.4,9.7,2.4,16.3v24.3c0,6.6-.7,12.1-2.4,16.3-1.4,4.2-3.8,7.6-7.3,10-2.8,2.1-6.9,3.8-11.8,4.9s-12.1,1.4-22.5,1.4h-31.2v.3ZM775.7,764.5h58.2v21.1h-84.9v-87.7h26.7v66.5ZM663.4,764.8h17c9.4,0,15.6-1,18.7-3.5s4.5-6.9,4.5-13.2v-12.5c0-6.6-1.4-10.7-4.5-13.2-3.1-2.4-9.4-3.5-18.7-3.5h-17c-9.7,0-15.9,1-19.1,3.5s-4.5,6.9-4.5,13.5v12.1c0,6.2,1.7,10.7,4.9,12.8,3.1,2.4,8.4,3.8,17.7,3.8h1ZM656.1,786.6c-10,0-17.7-.3-22.5-1.4s-8.7-2.4-11.4-4.9c-3.5-2.4-5.9-5.9-7.3-9.7-1-2.4-1.4-5.2-1.7-8.3,17-23.6,27-45,29.4-64.8,3.8,0,8.3-.3,13.5-.3h31.5c10,0,17.3.3,22.2,1.4s8.7,2.4,11.8,4.9c3.1,2.4,5.5,5.9,7.3,10,1.4,4.2,2.4,9.7,2.4,16.3v24.3c0,6.6-.7,12.1-2.4,16.3-1.4,4.2-3.8,7.6-7.3,10-2.8,2.1-6.9,3.8-11.8,4.9s-12.1,1.4-22.5,1.4h-31.2,0Z"/>
      <g>
        <path class="st3" d="M544.6,685.8c-3.8-19.4-12.1-34.3-24.9-44.3-12.8-9.7-29.8-14.9-51.6-14.2-22.2,2.1-39.5,9.4-52.7,21.8-12.8,12.1-21.1,29.1-24.9,49.5-1,18,1.7,33.6,9,47.1,7.3,13.5,18.4,24.3,34,33.3,20.4,10.4,34.6,20.8,43.3,31.9,8.7,11.1,12.5,22.9,11.8,35.3,0,3.8,0,8-.3,11.8,0,5.5,2.8,8.3,7.3,9,5.9,0,12.8-2.8,20.8-8.7,21.8-17.3,40.9-34.3,57.2-50.2s29.8-31.5,40.2-46.1c0-2.4-.3-4.9-.3-7.6v-23.6c0-7.3.7-13.2,2.1-17.3,1.4-4.2,3.8-7.6,7.3-10,2.8-2.1,6.9-3.8,11.8-4.5,2.4-.3,5.2-.7,8.7-1,0-1.4,0-2.8.3-4.2.7-33.3-18.4-49.9-54.7-49.9-12.5.7-20.8,7.6-28.1,14.6s-12.5,16.3-15.6,27.7M509.2,785.2h-30.1c-4.5-14.6-9.4-29.1-13.9-43.3-4.5-14.6-9.4-29.1-13.9-43.7h26.3c3.1,10.4,5.9,20.8,9,30.8,3.1,10.4,5.9,20.8,9,30.8,3.8-10.4,7.3-20.8,11.1-30.8,3.8-10.4,7.3-20.8,11.1-30.8h24.3c3.5,10.4,6.9,20.8,10.4,30.8,3.5,10.4,6.9,20.8,10.4,30.8,3.1-10.4,6.2-20.8,9.4-30.8,3.1-10.4,6.2-20.8,9.7-30.8h26.3c-4.9,14.6-9.7,29.1-14.6,43.7s-9.7,29.1-14.6,43.3h-29.8c-6.6-20.1-13.5-39.8-20.1-59.9-6.9,20.1-13.5,39.8-20.4,59.9h.3Z"/>
        <g class="st8">
          <rect class="st3" x="389.4" y="626.9" width="254.3" height="240.4"/>
        </g>
      </g>
      <path class="st2" d="M371,619.6l3.5-3.8c5.5-6.2,15.2-7.3,21.5-1.7l3.8,3.5c6.2,5.5,7.3,15.2,1.7,21.5l-3.5,3.8c-5.5,6.2-15.2,7.3-21.5,1.7l-3.8-3.5c-6.2-5.5-7.3-15.2-1.7-21.5"/>
      <path class="st2" d="M376.2,675.1c-.7,13.2-2.4,26.7-1,39.8,1.4,13.2,5.5,26,8.7,39.2l-1.4,1c-10-11.1-20.8-21.1-26.7-35-5.9-14.9-6.2-31.2-8.3-47.1.7-8,7.3-13.9,15.2-13.2,8,.7,13.9,7.3,13.2,15.2"/>
      <path class="st2" d="M428.2,586.7c8.7-2.8,17-6.2,25.6-6.6,9.7-.7,19.1,1.7,28.4,3.1,6.2,1.7,10.4,9.4,9,17-1.4,7.6-7.6,12.5-14.2,10.7-7.3-1-14.9-2.8-22.2-2.4-6.2,0-12.1,2.8-18,4.5-5.9,3.1-12.8-.3-15.6-7.6-2.4-7.3.3-15.6,6.6-18.7"/>
      <path class="st2" d="M399.4,764.5c-5.5,0-10,4.5-10,10s4.5,10,10,10,10-4.5,10-10-4.5-10-10-10"/>
      <path class="st2" d="M419.5,782.1c-5.5,0-10,4.5-10,10s4.5,10,10,10,10-4.5,10-10-4.5-10-10-10"/>
    </g>
  </g>
  <g>
    <path class="st4" d="M1620,385.6h6.2c3.8,0,6.2-.3,8-1.4s2.4-2.4,2.4-4.2-.7-2.8-1.7-4.2c-1-1-3.8-1.7-7.6-1.7h-6.9v11.4h-.3ZM1614.1,355.5h5.9v13.5h7.3c4.9,0,8.7,1,11.1,2.8,2.8,1.7,3.8,4.5,3.8,7.6s-1,5.2-3.1,7.3c-2.1,2.1-5.5,3.1-10.4,3.1h-14.6v-34.6.3ZM1646.7,355.5h5.9v34.6h-5.9v-34.6ZM1584.3,360.7c-.3,11.1-2.1,19.4-5.2,24.9h18.7v-24.9h-13.5ZM1579.5,355.5h24.3v29.8h3.8v14.6h-4.9v-9.7h-27.4v9.7h-4.9v-14.6h3.1c4.2-5.5,6.2-15.6,5.9-29.8h0ZM1553.5,355.5h20.1v4.9h-14.2v29.8h-5.9v-34.6h0ZM1520.2,372.8c0,4.5,1,7.6,2.8,10,2.1,2.1,4.5,3.5,7.3,3.5s5.2-1,7.3-3.5c2.1-2.1,2.8-5.5,2.8-10s-1-7.6-2.8-9.7c-2.1-2.1-4.5-3.5-7.3-3.5s-5.2,1-7.3,3.5c-2.1,2.1-2.8,5.5-2.8,10v-.3ZM1514.3,372.8c0-6.6,1.7-11.1,5.2-14.2,3.1-2.4,6.6-3.8,10.7-3.8s8.7,1.4,11.8,4.9c3.1,3.1,4.5,7.3,4.5,12.8s-.7,8-2.1,10.4-3.1,4.5-5.9,5.9c-2.4,1.4-5.2,2.1-8.3,2.1-4.9,0-8.7-1.4-11.8-4.5s-4.5-7.6-4.5-13.5h.3ZM1479.7,355.5h27.4v34.6h-5.9v-29.8h-15.6v17.3c0,4.2,0,6.6-.3,8,0,1.4-1,2.4-2.1,3.5-1,1-2.8,1.4-5.2,1.4h-4.9v-4.9h2.4c1.4,0,2.1,0,2.8-.3.7,0,1-.7,1-1v-28.1l.3-.7ZM1444.7,372.8c0,4.5,1,7.6,2.8,10,2.1,2.1,4.5,3.5,7.3,3.5s5.2-1,7.3-3.5c2.1-2.1,2.8-5.5,2.8-10s-1-7.6-2.8-9.7c-2.1-2.1-4.5-3.5-7.3-3.5s-5.2,1-7.3,3.5c-2.1,2.1-2.8,5.5-2.8,10v-.3ZM1438.8,372.8c0-6.6,1.7-11.1,5.2-14.2,3.1-2.4,6.6-3.8,10.7-3.8s8.7,1.4,11.8,4.9c3.1,3.1,4.5,7.3,4.5,12.8s-.7,8-2.1,10.4-3.1,4.5-5.9,5.9c-2.4,1.4-5.2,2.1-8.3,2.1-4.9,0-8.7-1.4-11.8-4.5s-4.5-7.6-4.5-13.5h.3ZM1403.1,384.6h15.9c1.4,0,2.8-.7,3.8-1.4,1-.7,1.7-1.4,2.4-2.8.7-1,1-2.4,1-4.2s-.3-3.5-1.4-4.5c-1-1.4-2.1-2.1-3.8-2.8-1.7-.7-3.8-.7-6.9-.7h-11.1v16.3h0ZM1403.1,362.4h10.4c2.8,0,4.9,0,5.9-.7,1.7-.3,2.8-1.4,3.5-2.4.7-1,1.4-2.4,1.4-4.2s-.3-3.1-1-4.2c-.7-1.4-1.7-2.1-3.1-2.4s-3.8-.7-7.3-.7h-9.7v14.6h0ZM1396.9,390.2v-47.8h18c3.8,0,6.6.3,8.7,1.4s3.8,2.4,5.2,4.5c1.4,2.1,1.7,4.2,1.7,6.2s-.7,3.8-1.7,5.9c-1,1.7-2.8,3.1-4.9,4.5,2.8.7,5.2,2.4,6.6,4.5,1.4,2.1,2.4,4.5,2.4,7.3s-.3,4.2-1.4,6.2c-1,2.1-2.1,3.5-3.5,4.5s-3.1,1.7-5.2,2.4-4.5.7-7.6.7h-18.4v-.3ZM1345.3,369.7h19.4c0-2.8-1-5.2-2.1-6.6-1.7-2.4-4.2-3.5-7.3-3.5s-4.9,1-6.9,2.8c-1.7,1.7-2.8,4.2-3.1,7.3ZM1364.3,379.1l6.2.7c-1,3.5-2.8,6.2-5.2,8.3s-5.9,2.8-10,2.8-9-1.4-12.1-4.5-4.5-7.6-4.5-13.2,1.4-10.4,4.5-13.5,6.9-4.9,11.8-4.9,8.3,1.7,11.4,4.9c2.8,3.1,4.5,7.6,4.5,13.2s0,1,0,1.7h-26c0,3.8,1.4,6.6,3.1,8.7,2.1,2.1,4.5,3.1,7.3,3.1s3.8-.7,5.5-1.7c1.4-1,2.8-2.8,3.5-5.5h0ZM1303.3,355.5h5.9v29.8h16.3v-29.8h5.9v29.8h3.8v14.6h-4.9v-9.7h-27v-34.6h0ZM1273.9,360.7c-.3,11.1-2.1,19.4-5.2,24.9h18.7v-24.9h-13.5ZM1269,355.5h24.3v29.8h3.8v14.6h-4.9v-9.7h-27.4v9.7h-4.9v-14.6h3.1c4.2-5.5,6.2-15.6,5.9-29.8h0ZM1234,373.2c0,4.5,1,7.6,2.8,10,1.7,2.1,4.2,3.1,6.6,3.1s4.9-1,6.6-3.5c1.7-2.1,2.8-5.5,2.8-10.4s-1-7.6-2.8-10c-1.7-2.1-4.2-3.5-6.6-3.5s-4.9,1-6.6,3.5c-2.1,2.4-2.8,5.9-2.8,10v.7ZM1228.5,403.7v-47.8h5.2v4.5c1.4-1.7,2.8-3.1,4.2-3.8,1.7-1,3.5-1.4,5.9-1.4s5.5.7,8,2.4c2.4,1.4,3.8,3.8,5.2,6.6,1,2.8,1.7,5.9,1.7,9s-.7,6.6-2.1,9.7c-1.4,2.8-3.1,4.9-5.5,6.6-2.4,1.4-4.9,2.4-7.6,2.4s-3.8-.3-5.2-1.4c-1.7-.7-2.8-1.7-3.8-3.1v17h-5.9v-.7ZM1195.9,369.7h19.4c0-2.8-1-5.2-2.1-6.6-1.7-2.4-4.2-3.5-7.3-3.5s-4.9,1-6.9,2.8c-1.7,1.7-2.8,4.2-3.1,7.3ZM1215.3,379.1l6.2.7c-1,3.5-2.8,6.2-5.2,8.3s-5.9,2.8-10,2.8-9-1.4-12.1-4.5-4.5-7.6-4.5-13.2,1.4-10.4,4.5-13.5,6.9-4.9,11.8-4.9,8.3,1.7,11.4,4.9c2.8,3.1,4.5,7.6,4.5,13.2s0,1,0,1.7h-26c0,3.8,1.4,6.6,3.1,8.7,2.1,2.1,4.5,3.1,7.3,3.1s4.2-.7,5.5-1.7,2.8-2.8,3.5-5.5h0ZM1178.3,373.5l6.2,1.7c-1.4,5.2-3.8,9-7.3,11.8s-7.6,4.2-12.5,4.2-9.4-1-12.5-3.1-5.5-5.2-7.3-9c-1.7-4.2-2.4-8.3-2.4-12.8s1-9.4,2.8-13.2c1.7-3.8,4.5-6.6,8-8.3,3.5-2.1,7.3-2.8,11.4-2.8s8.7,1.4,12.1,3.8c3.1,2.4,5.5,5.9,6.9,10.4l-6.2,1.4c-1-3.5-2.8-5.9-4.9-7.6s-4.9-2.4-8-2.4-6.6,1-9.4,2.8c-2.4,1.7-4.2,4.2-5.2,7.3-1,3.1-1.4,5.9-1.4,9s.7,7.6,1.7,10.7,3.1,5.2,5.5,6.9c2.4,1.4,5.2,2.1,8,2.1s6.6-1,9-3.1,4.2-5.2,4.9-9l.3-.7Z"/>
    <path class="st2" d="M519.6,126.8l1-1.7c1.4-2.8,5.2-3.8,8-2.4l1.7,1c2.8,1.4,3.8,5.2,2.4,8l-1,1.7c-1.4,2.8-5.2,3.8-8,2.4l-1.7-1c-2.8-1.4-3.8-5.2-2.4-8"/>
    <path class="st2" d="M1543.1,214.1h26.7v52c0,5.9,1.4,10,4.2,11.8,2.8,2.1,8.7,3.1,17.7,3.1h15.2c7.6,0,12.5-1,14.9-3.1,2.4-2.1,3.8-5.9,3.8-11.8v-52h26.7v60.3c0,10.4-2.8,17.7-8.3,21.8-5.5,4.2-15.2,6.6-28.8,6.6h-29.8c-15.9,0-27-2.1-32.9-6.2-5.9-4.2-9-11.4-9-22.2v-60.3h-.3ZM1490.4,214.1c13.9,0,23.2,2.1,28.4,6.2,4.9,4.2,7.6,11.8,7.6,22.5s-1,13.2-3.5,17c-2.1,3.8-5.9,6.2-11.1,7.3,4.5,1,8,3.1,10.4,5.9,2.4,2.8,3.5,6.2,3.5,10.7v18h-26.7v-13.2c0-3.5-.7-5.9-2.4-6.9-1.7-1.4-4.9-2.1-9.7-2.1h-39.8v22.5h-26.7v-87.7h70.3l-.3-.3ZM1489.4,236h-42.6v21.5h42.6c3.5,0,6.2-.7,7.6-2.4,1.4-1.7,2.1-4.5,2.1-9s-.7-5.9-2.4-7.6c-1.4-1.7-4.2-2.4-7.3-2.4h0ZM1393.8,301.5h-24.9v-24.9h24.9v24.9ZM1252.4,301.5h-29.1l47.8-87.7h34l46.8,87.7h-29.4l-8.3-14.6h-53.4l-8.7,14.6h.3ZM1271.1,265.8h33.6l-17-30.8-16.6,30.8h0ZM1180,214.1c13.5,0,23.2,2.4,29.1,6.9,6.2,4.5,9,12.1,9,22.5v30.1c0,9.7-2.4,17-7.3,21.1-4.9,4.5-12.5,6.6-23.2,6.6h-84.5v-87.7h76.6l.3.3ZM1172,235.6h-41.9v44.7h45.4c5.5,0,9.7-1,12.5-3.5,2.8-2.4,3.8-5.9,3.8-10.7v-15.2c0-5.2-1.7-9-4.9-11.4-3.1-2.4-8.3-3.5-14.9-3.5v-.3ZM1059.4,245.7h0c0-4.2-1.4-6.9-3.8-8.7-2.4-1.4-8-2.1-16.3-2.1h-15.6c-9,0-14.9,1-17.7,3.1-2.4,2.1-3.8,6.9-3.8,13.9v12.1c0,6.2,1.4,10.7,4.5,12.8,2.8,2.4,8.7,3.5,17,3.5h15.6c7.6,0,12.8-.7,15.9-2.1,2.8-1.4,4.5-3.8,4.5-7.3s0-1.4,0-2.4h-31.5v-17.7h59.2v28.8c0,8.3-3.1,14.2-9,17.7-6.2,3.5-16.6,5.2-31.9,5.2h-29.8c-9,0-15.9-.3-20.1-1.4-4.5-1-8-2.8-11.1-4.9-3.5-2.8-6.2-6.2-7.6-10.4-1.7-4.2-2.4-9.4-2.4-15.2v-23.9c0-12.5,3.1-21.1,9-26.3,5.9-4.9,16.6-7.3,32.2-7.3h29.8c9.7,0,16.6.3,21.5,1.4,4.5.7,8.3,2.4,10.7,4.5,2.8,2.1,4.9,4.9,6.2,8.7,1.4,3.5,2.1,8,2.1,13.5s0,2.4,0,3.1v2.1h-26.7l-1-.7ZM893.1,280.7h17c9.4,0,15.6-1,18.7-3.5s4.5-6.9,4.5-13.2v-12.5c0-6.6-1.4-10.7-4.5-13.2-3.1-2.4-9.4-3.5-18.7-3.5h-17c-9.7,0-15.9,1-19.1,3.5-3.1,2.4-4.5,6.9-4.5,13.5v12.1c0,6.2,1.7,10.7,4.9,12.8,3.1,2.4,9.4,3.5,18.7,3.5v.3ZM885.8,302.5c-10,0-17.7-.3-22.5-1.4s-8.7-2.4-11.4-4.9c-3.5-2.4-5.9-5.9-7.3-9.7-1.4-4.2-2.1-9.4-2.1-16.3v-23.9c0-7.3.7-13.2,2.1-17.3,1.4-4.2,3.8-7.6,7.3-10,3.1-2.1,6.9-3.8,11.8-4.9,4.9-1,12.1-1.4,22.2-1.4h31.5c10,0,17.3.3,22.2,1.4s8.7,2.4,11.8,4.9c3.1,2.4,5.5,5.9,7.3,10,1.4,4.2,2.4,9.7,2.4,16.3v24.3c0,6.6-.7,12.1-2.4,16.3-1.4,4.2-3.8,7.6-7.3,10-2.8,2.1-6.9,3.8-11.8,4.9s-12.1,1.4-22.5,1.4h-31.2v.3ZM775.7,280.3h58.2v21.1h-84.9v-87.7h26.7v66.5ZM663.4,280.7h17c9.4,0,15.6-1,18.7-3.5s4.5-6.9,4.5-13.2v-12.5c0-6.6-1.4-10.7-4.5-13.2-3.1-2.4-9.4-3.5-18.7-3.5h-17c-9.7,0-15.9,1-19.1,3.5s-4.5,6.9-4.5,13.5v12.1c0,6.2,1.7,10.7,4.9,12.8,3.1,2.4,8.4,3.8,17.7,3.8h1ZM656.1,302.5c-10,0-17.7-.3-22.5-1.4s-8.7-2.4-11.4-4.9c-3.5-2.4-5.9-5.9-7.3-9.7-1-2.4-1.4-5.2-1.7-8.3,17-23.6,27-45,29.4-64.8,3.8,0,8.3-.3,13.5-.3h31.5c10,0,17.3.3,22.2,1.4s8.7,2.4,11.8,4.9c3.1,2.4,5.5,5.9,7.3,10,1.4,4.2,2.4,9.7,2.4,16.3v24.3c0,6.6-.7,12.1-2.4,16.3-1.4,4.2-3.8,7.6-7.3,10-2.8,2.1-6.9,3.8-11.8,4.9s-12.1,1.4-22.5,1.4h-31.2,0Z"/>
    <g class="st6">
      <rect class="st7" x="389.4" y="142.8" width="254.3" height="240.4"/>
    </g>
    <path class="st1" d="M371,135.5l3.5-3.8c5.5-6.2,15.2-7.3,21.5-1.7l3.8,3.5c6.2,5.5,7.3,15.2,1.7,21.5l-3.5,3.8c-5.5,6.2-15.2,7.3-21.5,1.7l-3.8-3.5c-6.2-5.5-7.3-15.2-1.7-21.5"/>
    <path class="st1" d="M376.2,190.9c-.7,13.2-2.4,26.7-1,39.8,1.4,13.2,5.5,26,8.7,39.2l-1.4,1c-10-11.1-20.8-21.1-26.7-35-5.9-14.9-6.2-31.2-8.3-47.1.7-8,7.3-13.9,15.2-13.2,8,.7,13.9,7.3,13.2,15.2"/>
    <path class="st1" d="M515.1,128.2l1.7-2.8c2.4-4.5,8.3-6.2,13.2-3.8l2.8,1.7c4.5,2.4,6.2,8.3,3.8,13.2l-1.7,2.8c-2.4,4.5-8.3,6.2-13.2,3.8l-2.8-1.7c-4.5-2.4-6.2-8.3-3.8-13.2"/>
    <path class="st1" d="M428.2,102.6c8.7-2.8,17-6.2,25.6-6.6,9.7-.7,19.1,1.7,28.4,3.1,6.2,1.7,10.4,9.4,9,17-1.4,7.6-7.6,12.5-14.2,10.7-7.3-1-14.9-2.8-22.2-2.4-6.2,0-12.1,2.8-18,4.5-5.9,3.1-12.8-.3-15.6-7.6-2.4-7.3.3-15.6,6.6-18.7"/>
    <path class="st1" d="M399.4,280.3c-5.5,0-10,4.5-10,10s4.5,10,10,10,10-4.5,10-10-4.5-10-10-10"/>
    <path class="st1" d="M419.5,298c-5.5,0-10,4.5-10,10s4.5,10,10,10,10-4.5,10-10-4.5-10-10-10"/>
    <path class="st0" d="M540.1,207.6c-6.6-27.4-18.4-43.7-35.7-49.2-34-10.7-62.7-5.2-85.9,16.6-22.5,29.1-27,55.4-13.2,79.7,15.9,6.9,34.3,5.2,57.2-5.9-3.5-10.7-7.3-22.9-11.1-34.3h26.3c2.1,7.6,4.9,16.6,7.3,25.3,6.2-1.7,14.6-2.8,24.6-2.4,3.5-9.4,6.2-17.3,8.3-22.9h24.3c2.4,7.3,5.2,15.2,7.3,21.8,5.9,2.1,14.2,3.1,24.9,3.1,2.8-9.4,5.5-18,7.6-24.9h26.3c-2.4,7.3-5.2,15.6-8.3,24.3,1.7-1,5.2-1,12.1-.3,0-.7,1.4-1,1.4-1.7,2.1-13.2,8.3-20.4,21.1-21.5,2.4-19.1-3.1-33.6-16.3-43-19.1-8-34.6-8-47.1,0-10.7,7.6-17.7,18-21.1,31.9-1.4,3.8-2.8,5.9-4.9,5.5-3.1,0-4.9,0-5.5-2.1M376.5,134.8l2.1-2.4c3.5-3.8,9.4-4.5,13.2-1l2.4,2.1c3.8,3.5,4.5,9.4,1,13.2l-2.1,2.4c-3.5,3.8-9.4,4.5-13.2,1l-2.4-2.1c-3.8-3.5-4.5-9.4-1-13.2M354.4,214.5c-1.7-10-2.8-17.7-2.8-22.2,0-7.3,3.1-11.1,9.7-11.4,6.9.3,10.7,3.5,11.4,9.4.3,1.7,0,9.7-1.7,23.6-.7,3.5-2.4,5.2-5.9,5.9-5.9,0-9.4-1.4-10.7-5.2M434.4,104.3c6.6-1.4,13.9-4.2,20.8-4.2s14.6,1,22.2,1.7c4.9,1,8,4.9,6.9,8.7-1,4.2-5.9,6.6-11.1,5.5-5.9-.7-11.4-1.4-17.3-1.4s-9.7,2.4-14.2,3.1c-4.9,1.4-10.7,0-12.5-3.5-2.1-3.8.7-8,5.2-10M519.3,127.5l1-1.7c1.7-2.8,5.2-3.8,8.3-2.1l1.7,1c2.8,1.7,3.8,5.2,2.1,8.3l-1,1.7c-1.7,2.8-5.2,3.8-8.3,2.1l-1.7-1c-2.8-1.7-3.8-5.2-2.1-8.3"/>
  </g>
</svg>